<svg height="511pt" viewBox="-50 1 511 511.99998" width="511pt" xmlns="http://www.w3.org/2000/svg"><path d="m173.261719 135.269531v242.273438c0 47.253906-37.753907 85.550781-85.007813 85.550781v48.902344h-77.453125c-5.6875 0-10.300781-4.613282-10.300781-10.304688v-280.019531c0-47.71875 38.683594-86.402344 86.40625-86.402344zm0 0" fill="#edb48a"/><path d="m88.253906 135.269531h85.003906v376.730469h-85.003906zm0 0" fill="#e29c6d"/><path d="m374.351562 511.230469h-221.648437c-20.433594 0-37-16.566407-37-37v-437.230469c0-20.433594 16.566406-37 37-37h221.652344c20.433593 0 37 16.566406 37 37v437.230469c0 20.433593-16.566407 37-37.003907 37zm0 0" fill="#618baa"/><path d="m411.351562 37v437.230469c0 20.441406-16.5625 37-37 37h-31.898437c20.4375 0 37-16.558594 37-37v-437.230469c0-20.4375-16.5625-37-37-37h31.898437c20.4375 0 37 16.5625 37 37zm0 0" fill="#4e7693"/><path d="m411.355469 47.75v410.589844h-295.652344v-410.589844h52.222656c4.273438 0 8.09375 2.636719 9.621094 6.632812l5.285156 13.9375c1.511719 3.996094 5.347657 6.632813 9.621094 6.632813h142.15625c4.273437 0 8.09375-2.636719 9.609375-6.632813l5.296875-13.9375c1.511719-3.996093 5.347656-6.632812 9.621094-6.632812zm0 0" fill="#5be167"/><path d="m379.453125 47.75h31.898437v410.589844h-31.898437zm0 0" fill="#1fc974"/><path d="m193.878906 257.984375h-31.78125c-5.199218 0-9.410156-4.210937-9.410156-9.410156v-31.777344c0-5.199219 4.210938-9.414063 9.410156-9.414063h31.78125c5.195313 0 9.410156 4.214844 9.410156 9.414063v31.777344c0 5.199219-4.214843 9.410156-9.410156 9.410156zm0 0" fill="#fd9e28"/><path d="m203.289062 216.796875v31.777344c0 5.195312-4.214843 9.410156-9.410156 9.410156h-18.828125c5.195313 0 9.414063-4.214844 9.414063-9.410156v-31.777344c0-5.199219-4.21875-9.414063-9.414063-9.414063h18.828125c5.195313 0 9.410156 4.21875 9.410156 9.414063zm0 0" fill="#fd8724"/><path d="m279.417969 257.984375h-31.777344c-5.199219 0-9.414063-4.210937-9.414063-9.410156v-31.777344c0-5.199219 4.214844-9.414063 9.414063-9.414063h31.777344c5.199219 0 9.410156 4.214844 9.410156 9.414063v31.777344c0 5.199219-4.214844 9.410156-9.410156 9.410156zm0 0" fill="#fd9e28"/><path d="m288.828125 216.796875v31.777344c0 5.195312-4.214844 9.410156-9.414063 9.410156h-18.824218c5.195312 0 9.414062-4.214844 9.414062-9.410156v-31.777344c0-5.199219-4.21875-9.414063-9.414062-9.414063h18.824218c5.199219 0 9.414063 4.21875 9.414063 9.414063zm0 0" fill="#fd8724"/><path d="m364.957031 257.984375h-31.777343c-5.199219 0-9.414063-4.210937-9.414063-9.410156v-31.777344c0-5.199219 4.214844-9.414063 9.414063-9.414063h31.777343c5.199219 0 9.410157 4.214844 9.410157 9.414063v31.777344c0 5.199219-4.214844 9.410156-9.410157 9.410156zm0 0" fill="#fd9e28"/><path d="m374.367188 216.796875v31.777344c0 5.195312-4.214844 9.410156-9.410157 9.410156h-18.828125c5.195313 0 9.414063-4.214844 9.414063-9.410156v-31.777344c0-5.199219-4.21875-9.414063-9.414063-9.414063h18.828125c5.195313 0 9.410157 4.21875 9.410157 9.414063zm0 0" fill="#fd8724"/><path d="m193.878906 416.394531h-31.78125c-5.199218 0-9.410156-4.210937-9.410156-9.410156v-31.78125c0-5.195313 4.210938-9.410156 9.410156-9.410156h31.78125c5.195313 0 9.410156 4.214843 9.410156 9.410156v31.78125c0 5.195313-4.214843 9.410156-9.410156 9.410156zm0 0" fill="#43a3f9"/><path d="m203.289062 375.203125v31.78125c0 5.195313-4.214843 9.410156-9.410156 9.410156h-18.828125c5.195313 0 9.414063-4.214843 9.414063-9.410156v-31.78125c0-5.195313-4.21875-9.410156-9.414063-9.410156h18.828125c5.195313 0 9.410156 4.214843 9.410156 9.410156zm0 0" fill="#1685fb"/><path d="m279.417969 416.394531h-31.777344c-5.199219 0-9.414063-4.210937-9.414063-9.410156v-31.78125c0-5.195313 4.214844-9.410156 9.414063-9.410156h31.777344c5.199219 0 9.410156 4.214843 9.410156 9.410156v31.78125c0 5.195313-4.214844 9.410156-9.410156 9.410156zm0 0" fill="#43a3f9"/><path d="m288.828125 375.203125v31.78125c0 5.195313-4.214844 9.410156-9.414063 9.410156h-18.824218c5.195312 0 9.414062-4.214843 9.414062-9.410156v-31.78125c0-5.195313-4.21875-9.410156-9.414062-9.410156h18.824218c5.199219 0 9.414063 4.214843 9.414063 9.410156zm0 0" fill="#1685fb"/><path d="m364.957031 416.394531h-31.777343c-5.199219 0-9.414063-4.210937-9.414063-9.410156v-31.78125c0-5.195313 4.214844-9.410156 9.414063-9.410156h31.777343c5.199219 0 9.410157 4.214843 9.410157 9.410156v31.78125c0 5.195313-4.214844 9.410156-9.410157 9.410156zm0 0" fill="#43a3f9"/><path d="m374.367188 375.203125v31.78125c0 5.195313-4.214844 9.410156-9.410157 9.410156h-18.828125c5.195313 0 9.414063-4.214843 9.414063-9.410156v-31.78125c0-5.195313-4.21875-9.410156-9.414063-9.410156h18.828125c5.195313 0 9.410157 4.214843 9.410157 9.410156zm0 0" fill="#1685fb"/><path d="m88.257812 239.726562c0-23.472656 19.027344-42.5 42.5-42.5 23.472657 0 42.5 19.027344 42.5 42.5v137.820313c0 37.484375-23.761718 69.339844-57.179687 80.902344-16.632813 5.753906-27.820313 21.375-27.820313 38.976562zm0 0" fill="#edb48a"/><path d="m173.261719 239.726562v137.816407c0 35.929687-21.839844 66.6875-53.078125 79.359375 17.457031-15.675782 28.390625-38.511719 28.390625-63.929688v-153.246094c0-11.738281-4.753907-22.363281-12.445313-30.054687-4.878906-4.878906-10.9375-8.582031-17.714844-10.628906 3.910157-1.183594 8.054688-1.820313 12.34375-1.820313 11.738282 0 22.363282 4.753906 30.058594 12.445313 7.691406 7.695312 12.445313 18.320312 12.445313 30.058593zm0 0" fill="#e29c6d"/><path d="m115.703125 182.539062v16.585938c-11.648437 5.601562-19.71875 17.542969-19.71875 31.328125v110.703125c0 4.265625-3.460937 7.726562-7.722656 7.726562-4.277344 0-7.726563-3.460937-7.726563-7.726562v-110.703125c-.003906-22.449219 14.800782-41.507813 35.167969-47.914063zm0 0" fill="#e29c6d"/><path d="m193.878906 169.824219h-31.78125c-5.199218 0-9.410156-4.214844-9.410156-9.414063v-31.777344c0-5.199218 4.210938-9.410156 9.410156-9.410156h31.78125c5.195313 0 9.410156 4.210938 9.410156 9.410156v31.777344c0 5.199219-4.214843 9.414063-9.410156 9.414063zm0 0" fill="#e3f4ff"/><path d="m203.289062 128.632812v31.777344c0 5.199219-4.214843 9.414063-9.410156 9.414063h-18.828125c5.195313 0 9.414063-4.214844 9.414063-9.414063v-31.777344c0-5.195312-4.21875-9.410156-9.414063-9.410156h18.828125c5.195313 0 9.410156 4.214844 9.410156 9.410156zm0 0" fill="#bddff4"/><path d="m279.417969 169.824219h-31.777344c-5.199219 0-9.414063-4.214844-9.414063-9.414063v-31.777344c0-5.199218 4.214844-9.410156 9.414063-9.410156h31.777344c5.199219 0 9.410156 4.210938 9.410156 9.410156v31.777344c0 5.199219-4.214844 9.414063-9.410156 9.414063zm0 0" fill="#e3f4ff"/><path d="m288.828125 128.632812v31.777344c0 5.199219-4.214844 9.414063-9.414063 9.414063h-18.824218c5.195312 0 9.414062-4.214844 9.414062-9.414063v-31.777344c0-5.195312-4.21875-9.410156-9.414062-9.410156h18.824218c5.199219 0 9.414063 4.214844 9.414063 9.410156zm0 0" fill="#bddff4"/><path d="m364.957031 169.824219h-31.777343c-5.199219 0-9.414063-4.214844-9.414063-9.414063v-31.777344c0-5.199218 4.214844-9.410156 9.414063-9.410156h31.777343c5.199219 0 9.410157 4.210938 9.410157 9.410156v31.777344c0 5.199219-4.214844 9.414063-9.410157 9.414063zm0 0" fill="#e3f4ff"/><path d="m374.367188 128.632812v31.777344c0 5.199219-4.214844 9.414063-9.410157 9.414063h-18.828125c5.195313 0 9.414063-4.214844 9.414063-9.414063v-31.777344c0-5.195312-4.21875-9.410156-9.414063-9.410156h18.828125c5.195313 0 9.410157 4.214844 9.410157 9.410156zm0 0" fill="#bddff4"/><path d="m64.492188 350.492188c-4.265626 0-7.726563-3.457032-7.726563-7.722657 0-17.367187 14.128906-31.492187 31.492187-31.492187 4.265626 0 7.726563 3.460937 7.726563 7.726562s-3.460937 7.726563-7.726563 7.726563c-8.84375 0-16.039062 7.195312-16.039062 16.039062 0 4.265625-3.460938 7.722657-7.726562 7.722657zm0 0" fill="#e29c6d"/></svg>