<svg id="Capa_1" enable-background="new 0 0 512 512" height="512" viewBox="0 0 512 512" width="512" xmlns="http://www.w3.org/2000/svg"><g><path d="m497 18.34h-146.323c-8.284 0-15 6.716-15 15v108.203c0 8.284 6.716 15 15 15h146.323c8.284 0 15-6.716 15-15v-108.203c0-8.284-6.716-15-15-15z" fill="#ff5b5b"/><g><path d="m434.462 456.623h-364.006c-8.284 0-15-6.716-15-15s6.716-15 15-15h364.006c26.213 0 47.538-21.286 47.538-47.45s-21.325-47.45-47.538-47.45h-331.748c-56.637 0-102.714-46.022-102.714-102.59s46.077-102.59 102.714-102.59h247.963c8.284 0 15 6.716 15 15s-6.716 15-15 15h-247.963c-40.095 0-72.714 32.563-72.714 72.59s32.619 72.59 72.714 72.59h331.748c42.755 0 77.538 34.744 77.538 77.45s-34.783 77.45-77.538 77.45z" fill="#61729b"/></g><ellipse cx="70.456" cy="441.623" fill="#ffe470" rx="70.456" ry="70.377"/><path d="m393.159 217.012h-27.482v-202.012c0-8.284-6.716-15-15-15s-15 6.716-15 15v202.012h-26.12c-8.284 0-15 6.716-15 15s6.716 15 15 15h83.603c8.284 0 15-6.716 15-15s-6.717-15-15.001-15z" fill="#805540"/><path d="m140.912 441.623c0-38.807-31.606-70.378-70.456-70.378v140.755c38.85 0 70.456-31.571 70.456-70.377z" fill="#fabe2c"/><path d="m497 18.34h-73.162v138.203h73.162c8.284 0 15-6.716 15-15v-108.203c0-8.284-6.716-15-15-15z" fill="#e50058"/></g></svg>