<svg width="774" height="774" viewBox="0 0 774 774" fill="none" xmlns="http://www.w3.org/2000/svg">
<circle cx="387" cy="387" r="387" fill="#F2CCC7"/>
<path d="M121.632 198.553L102.114 293.757C110.798 302.67 120.002 311.083 134.858 314.256L206.329 326.95L223.121 215.041L121.632 198.553Z" fill="#FAFAFA"/>
<path d="M117.558 192.678L98.0403 287.883L130.783 308.382L202.255 321.076L223.362 213.65L117.558 192.678Z" fill="#F5F5F5"/>
<path d="M111.359 282.805L98 287.883C98 287.883 102.809 295.81 109.823 300.037C116.216 304.107 123.315 306.916 130.743 308.315C130.743 308.315 115.18 300.536 111.359 282.805Z" fill="#E0E0E0"/>
<path d="M106.683 213.11L155.537 197.797L152.425 187.398L102.769 201.996L106.683 213.11Z" fill="#EBEBEB"/>
<path d="M231.818 239.335L200.143 198.728L191.674 205.399L222.947 247.019L231.818 239.335Z" fill="#EBEBEB"/>
<path d="M204.98 245.277C204.98 245.466 186.905 242.063 164.688 237.674C142.472 233.285 124.491 229.572 124.531 229.369C124.571 229.167 142.606 232.583 164.822 236.972C187.038 241.361 205.02 245.088 204.98 245.277Z" fill="#E0E0E0"/>
<path d="M201.787 259.875C201.787 260.064 183.712 256.661 161.496 252.259C139.279 247.856 121.245 244.224 121.338 243.967C121.432 243.711 139.413 247.181 161.629 251.57C183.845 255.959 201.827 259.686 201.787 259.875Z" fill="#E0E0E0"/>
<path d="M199.716 272.961C199.716 273.15 181.641 269.747 159.438 265.358C137.236 260.969 119.241 257.255 119.268 257.053C119.294 256.85 137.342 260.267 159.572 264.669C181.802 269.072 199.756 272.772 199.716 272.961Z" fill="#E0E0E0"/>
<path d="M197.218 285.466C197.218 285.655 179.143 282.252 156.927 277.849C134.711 273.447 116.73 269.747 116.77 269.558C116.81 269.369 134.845 272.772 157.061 277.16C179.277 281.549 197.245 285.276 197.218 285.466Z" fill="#E0E0E0"/>
<path d="M578.967 154.772L553.705 217.013C545.329 218.728 536.82 219.957 527.081 215.973L481.219 195.298L514.443 124.523L578.967 154.772Z" fill="#FAFAFA"/>
<path d="M583.549 152.99L558.301 215.244L531.663 214.191L485.801 193.516L514.83 123.632L583.549 152.99Z" fill="#F5F5F5"/>
<path d="M552.596 207.114L558.301 215.217C554.682 216.799 550.781 217.612 546.839 217.607C541.611 217.435 536.462 216.266 531.663 214.164C531.663 214.164 543.619 215.865 552.596 207.114Z" fill="#E0E0E0"/>
<path d="M581.96 168.965L559.797 141.079L565.568 136.326L588.465 164.117L581.96 168.965Z" fill="#EBEBEB"/>
<path d="M500.149 135.07L533.854 124.158L536.165 131.302L502.286 142.943L500.149 135.07Z" fill="#EBEBEB"/>
<path d="M513.267 148.965C513.334 148.79 525.09 153.651 539.518 159.769C553.946 165.886 565.581 171.085 565.501 171.261C565.421 171.436 553.678 166.588 539.251 160.458C524.823 154.327 513.187 149.141 513.267 148.965Z" fill="#E0E0E0"/>
<path d="M509.513 158.594C509.58 158.405 521.336 163.266 535.764 169.397C550.192 175.528 561.814 180.714 561.747 180.889C561.681 181.065 549.911 176.217 535.497 170.086C521.082 163.955 509.433 158.769 509.513 158.594Z" fill="#E0E0E0"/>
<path d="M505.679 166.912C505.76 166.723 517.516 171.585 531.93 177.716C546.345 183.847 557.994 189.032 557.914 189.208C557.833 189.383 546.091 184.535 531.663 178.405C517.235 172.274 505.613 167.088 505.679 166.912Z" fill="#E0E0E0"/>
<path d="M502.34 175.056C502.406 174.88 514.162 179.741 528.59 185.859C543.018 191.976 554.64 197.175 554.574 197.351C554.507 197.526 542.737 192.678 528.31 186.548C513.882 180.417 502.259 175.231 502.34 175.056Z" fill="#E0E0E0"/>
<path d="M551.501 420.035C531.035 403.181 528.216 374.526 530.941 349.165C531.395 344.924 531.262 340.428 533.533 336.849C535.804 333.27 540.653 331.083 544.22 333.149C547.226 334.864 548.321 338.631 549.844 341.791C551.876 346.013 555.048 349.567 558.995 352.041C561.56 353.648 564.807 354.742 567.558 353.473C571.326 351.73 572.127 346.72 572.408 342.48C572.942 334.612 573.472 326.739 573.998 318.861C574.058 314.624 574.793 310.425 576.175 306.424C577.765 302.508 580.904 299.01 584.965 298.173C589.027 297.336 593.756 300.037 594.317 304.236C594.341 305.991 594.251 307.746 594.05 309.489C594.05 311.259 594.691 313.257 596.307 313.865C597.924 314.473 599.7 313.419 601.036 312.271C605.659 308.342 608.985 303.061 612.124 297.808C615.264 292.555 618.323 287.167 622.571 282.805C626.819 278.443 632.497 275.175 638.509 275.27C644.52 275.364 650.612 279.591 651.681 285.641C652.749 291.691 648.889 297.484 644.801 302.022C638.731 308.754 631.73 314.562 624.014 319.266C622.534 319.959 621.308 321.108 620.514 322.548C619.405 325.249 621.85 328.287 624.522 329.422C627.568 330.705 630.961 330.637 634.194 331.258C637.427 331.879 640.873 333.608 641.848 336.808C643.184 341.251 639.337 345.519 635.61 348.206C628.141 353.619 619.802 357.685 610.962 360.225C607.809 361.143 604.496 361.886 601.865 363.884C599.233 365.883 597.456 369.57 598.725 372.648C599.994 375.727 603.788 376.983 607.048 376.619C610.308 376.254 613.313 374.701 616.466 373.769C622.371 372 629.745 372.959 633.058 378.253C635.236 381.723 635.102 386.355 633.592 390.163C631.907 393.929 629.496 397.318 626.499 400.129C616.592 410.486 604.146 418.002 590.429 421.912C576.776 425.585 564.352 425.963 551.474 420.035" fill="#F5F5F5"/>
<path d="M549.791 438.859C551.81 427.157 554.942 415.68 559.142 404.586C564.33 391.048 570.284 377.823 576.977 364.978L582.187 354.836C583.897 351.514 585.593 348.206 587.464 345.086C591.046 339.103 594.953 333.323 599.166 327.774C603.174 322.453 607.182 317.551 610.882 312.92C614.583 308.288 618.23 304.196 621.663 300.523C627.043 294.711 632.873 289.342 639.097 284.466C641.301 282.738 643.104 281.455 644.24 280.604L645.576 279.632C645.726 279.517 645.887 279.417 646.057 279.335C645.918 279.467 645.771 279.589 645.616 279.699L644.28 280.726C643.118 281.617 641.394 282.94 639.23 284.709C633.092 289.662 627.336 295.08 622.01 300.914C618.604 304.587 615.05 308.774 611.323 313.338C607.596 317.903 603.641 322.791 599.674 328.193C595.494 333.734 591.614 339.499 588.051 345.465C586.208 348.571 584.525 351.839 582.801 355.174C581.078 358.51 579.368 361.926 577.605 365.302C570.926 378.126 564.963 391.318 559.744 404.815C555.527 415.86 552.347 427.281 550.245 438.927" fill="#E0E0E0"/>
<path d="M587.704 345.073C587.547 344.477 587.457 343.866 587.437 343.25C587.304 342.061 587.157 340.346 587.023 338.226C586.743 333.972 586.542 328.098 586.355 321.616C586.168 315.134 585.901 309.273 585.554 305.033C585.393 302.926 585.233 301.211 585.113 300.023C585.016 299.411 584.985 298.791 585.019 298.173C585.213 298.76 585.343 299.367 585.407 299.983C585.62 301.157 585.861 302.872 586.101 304.979C586.582 309.219 586.943 315.094 587.13 321.589C587.317 328.085 587.451 333.743 587.571 338.199C587.571 340.184 587.691 341.872 587.731 343.223C587.794 343.838 587.785 344.459 587.704 345.073Z" fill="#E0E0E0"/>
<path d="M642.142 338.956C641.426 339.063 640.701 339.099 639.978 339.064C638.642 339.064 636.585 339.064 634.114 339.199C629.157 339.374 622.318 339.847 614.796 340.698C607.275 341.548 600.489 342.656 595.613 343.574C593.168 344.02 591.204 344.438 589.842 344.722C589.143 344.912 588.427 345.029 587.704 345.073C588.372 344.787 589.065 344.565 589.775 344.411C591.111 344.047 593.074 343.547 595.506 343.061C600.369 341.994 607.155 340.819 614.703 339.941C621.143 339.189 627.617 338.765 634.1 338.672C636.585 338.672 638.602 338.672 639.992 338.78C640.712 338.772 641.432 338.83 642.142 338.956Z" fill="#E0E0E0"/>
<path d="M559.891 403.64C559.764 403.423 559.661 403.192 559.583 402.952L558.808 400.913C558.14 399.144 557.245 396.564 556.137 393.35C553.999 386.949 551.327 377.996 548.509 368.084C545.69 358.172 543.165 349.178 541.108 342.75C540.132 339.617 539.318 337.038 538.716 335.12C538.463 334.283 538.249 333.594 538.088 333.041C537.993 332.804 537.934 332.553 537.915 332.298C538.046 332.515 538.154 332.746 538.235 332.987L538.997 335.012C539.665 336.781 540.56 339.361 541.669 342.575C543.806 348.989 546.478 357.929 549.297 367.854C552.116 377.78 554.64 386.76 556.698 393.188C557.673 396.321 558.488 398.901 559.089 400.805L559.73 402.898C559.821 403.136 559.875 403.386 559.891 403.64Z" fill="#E0E0E0"/>
<path d="M632.898 385.734C632.664 385.844 632.417 385.926 632.163 385.977L630.039 386.531L622.211 388.462C615.611 390.096 606.514 392.445 596.468 395.065C586.422 397.685 577.284 399.967 570.645 401.453C567.318 402.209 564.633 402.803 562.763 403.141L560.612 403.546C560.358 403.609 560.098 403.64 559.837 403.64C560.071 403.53 560.318 403.448 560.572 403.397L562.696 402.844L570.524 400.913C577.124 399.292 586.221 396.929 596.281 394.309C606.34 391.689 615.531 389.407 622.211 387.908C625.537 387.165 628.222 386.558 630.092 386.234L632.257 385.828C632.467 385.775 632.682 385.743 632.898 385.734Z" fill="#E0E0E0"/>
<path d="M269.223 141.309L301.459 240.645C314.257 244.251 327.295 247.114 342.872 241.996L416.24 215.163L372.623 101.728L269.223 141.309Z" fill="#E0E0E0"/>
<path d="M262.317 138.041L294.552 237.364L335.925 238.768L409.293 211.922L372.075 100.337L262.317 138.041Z" fill="#1C6056"/>
<path d="M304.264 225.426L294.539 237.364C294.539 237.364 303.222 242.158 312.026 242.36C320.142 242.716 328.251 241.515 335.925 238.822C335.925 238.822 317.223 239.889 304.264 225.426Z" fill="#1C6056"/>
<path opacity="0.3" d="M304.264 225.426C301.312 231.462 298.319 238.552 294.539 237.364C294.539 237.364 303.222 242.158 312.026 242.36C320.142 242.716 328.251 241.515 335.925 238.822C335.925 238.822 317.223 239.889 304.264 225.426Z" fill="black"/>
<path d="M263.011 162.969L300.443 122.268L292.04 114.26L253.473 154.732L263.011 162.969Z" fill="#E0E0E0"/>
<path d="M393.556 119.715L342.538 99L338.156 109.803L389.362 131.68L393.556 119.715Z" fill="#E0E0E0"/>
<path d="M371.687 139.783C371.687 139.958 353.118 146.535 330.087 154.462C307.056 162.389 288.313 168.668 288.233 168.479C288.153 168.29 306.789 161.727 329.833 153.8C352.878 145.873 371.621 139.594 371.687 139.783Z" fill="#263238"/>
<path d="M376.403 155.096C376.403 155.285 357.834 161.848 334.803 169.789C311.772 177.729 293.029 183.982 292.976 183.806C292.923 183.631 311.532 177.054 334.576 169.114C357.621 161.173 376.403 154.934 376.403 155.096Z" fill="#263238"/>
<path d="M381.44 168.438C381.44 168.614 362.884 175.19 339.84 183.117C316.795 191.044 298.079 197.324 298.012 197.135C297.945 196.946 316.581 190.383 339.626 182.456C362.67 174.529 381.386 168.249 381.44 168.438Z" fill="#263238"/>
<path d="M385.755 181.443C385.755 181.632 367.186 188.195 344.155 196.135C321.123 204.076 302.394 210.328 302.327 210.153C302.26 209.977 320.883 203.401 343.927 195.46C366.972 187.52 385.661 181.267 385.755 181.443Z" fill="#263238"/>
<path d="M435.184 465.949L428.718 526.717C428.718 526.717 416.12 507.474 407.597 516.049C399.475 524.233 385.127 583.908 385.127 583.908C385.127 583.908 384.94 603.367 395.173 608.512C427.997 625.041 464.574 593.982 464.574 593.982L459.35 420.048C445.742 431.627 437.084 448.071 435.184 465.949Z" fill="#1C6056"/>
<path d="M545.917 423.708L489.128 419.13C488.78 412.378 489.248 386.49 489.248 386.49C489.248 386.49 465.616 382.777 465.335 358.901C465.055 335.026 469.129 280.172 469.129 280.172C482.56 274.335 497.289 272.23 511.794 274.075C526.299 275.919 540.053 281.647 551.635 290.665L555.135 293.365L545.917 423.708Z" fill="#B78876"/>
<path d="M489.208 386.153C500.118 386.361 510.842 383.282 520.014 377.307C520.014 377.307 512.733 394.485 489.155 392.338L489.208 386.153Z" fill="#AA6550"/>
<path d="M552.236 318.119C552.637 317.943 568.467 313.271 567.946 329.597C567.425 345.924 551.328 342.035 551.314 341.562C551.301 341.089 552.236 318.119 552.236 318.119Z" fill="#B78876"/>
<path d="M556.431 335.539C556.511 335.539 556.712 335.742 557.179 335.985C557.837 336.297 558.59 336.335 559.276 336.093C561.013 335.512 562.536 332.825 562.71 329.881C562.781 328.497 562.553 327.115 562.042 325.83C561.909 325.314 561.653 324.838 561.297 324.445C560.941 324.052 560.495 323.753 559.998 323.574C559.677 323.475 559.332 323.493 559.024 323.627C558.716 323.76 558.464 324 558.315 324.304C558.088 324.749 558.168 325.073 558.087 325.1C558.007 325.127 557.754 324.817 557.9 324.141C558.011 323.744 558.245 323.394 558.568 323.142C559.025 322.824 559.584 322.694 560.131 322.778C560.799 322.941 561.414 323.276 561.917 323.748C562.42 324.221 562.794 324.817 563.004 325.478C563.637 326.916 563.921 328.485 563.832 330.056C563.618 333.338 561.855 336.363 559.504 336.97C559.065 337.087 558.607 337.101 558.163 337.012C557.718 336.923 557.3 336.733 556.939 336.457C556.458 335.931 556.378 335.566 556.431 335.539Z" fill="#AA6550"/>
<path d="M474.339 317.146C474.332 318.036 474.668 318.894 475.277 319.538C475.886 320.181 476.719 320.558 477.599 320.59C478.028 320.625 478.46 320.572 478.869 320.435C479.278 320.298 479.656 320.08 479.98 319.793C480.304 319.506 480.567 319.156 480.755 318.764C480.943 318.372 481.05 317.946 481.072 317.511C481.08 316.623 480.745 315.767 480.139 315.124C479.533 314.481 478.704 314.102 477.826 314.067C477.396 314.034 476.964 314.088 476.556 314.226C476.147 314.363 475.769 314.581 475.444 314.868C475.12 315.155 474.855 315.504 474.665 315.895C474.475 316.286 474.365 316.711 474.339 317.146Z" fill="#263238"/>
<path d="M473.605 313.77C474.019 314.216 476.584 312.298 480.204 312.312C483.824 312.325 486.496 314.162 486.884 313.662C487.071 313.46 486.643 312.649 485.548 311.799C483.978 310.702 482.112 310.122 480.204 310.138C478.314 310.131 476.471 310.731 474.941 311.853C473.778 312.771 473.404 313.568 473.605 313.77Z" fill="#263238"/>
<path d="M509.901 318.497C509.894 319.385 510.228 320.241 510.834 320.883C511.44 321.526 512.27 321.905 513.147 321.94C513.577 321.973 514.009 321.92 514.418 321.782C514.827 321.645 515.205 321.426 515.529 321.14C515.854 320.853 516.119 320.504 516.308 320.113C516.498 319.722 516.609 319.296 516.634 318.861C516.638 317.972 516.301 317.116 515.693 316.474C515.085 315.831 514.254 315.453 513.375 315.418C512.946 315.385 512.514 315.439 512.106 315.576C511.698 315.714 511.321 315.933 510.998 316.219C510.674 316.506 510.411 316.855 510.222 317.246C510.034 317.637 509.925 318.062 509.901 318.497Z" fill="#263238"/>
<path d="M509.287 314.445C509.714 314.891 512.266 312.974 515.899 312.987C519.533 313.001 522.191 314.837 522.579 314.337C522.779 314.148 522.352 313.338 521.243 312.487C519.673 311.391 517.808 310.807 515.899 310.813C514.01 310.81 512.168 311.411 510.636 312.528C509.474 313.46 509.086 314.256 509.287 314.445Z" fill="#263238"/>
<path d="M496.115 341.67C496.115 341.467 493.871 341.076 490.224 340.603C489.288 340.508 488.42 340.319 488.26 339.671C488.186 338.707 488.4 337.743 488.874 336.903C489.765 334.634 490.678 332.253 491.613 329.759C495.434 319.604 498.186 311.245 497.771 311.096C497.357 310.948 493.951 319.064 490.143 329.219C489.235 331.717 488.353 334.108 487.472 336.403C486.88 337.529 486.709 338.833 486.991 340.076C487.124 340.405 487.331 340.698 487.595 340.933C487.859 341.167 488.174 341.336 488.514 341.427C489.027 341.574 489.557 341.651 490.09 341.656C493.817 341.872 496.101 341.886 496.115 341.67Z" fill="#263238"/>
<path d="M508.352 300.077C508.712 301.076 512.359 300.604 516.594 301.117C520.829 301.63 524.302 302.805 524.863 301.914C525.117 301.481 524.516 300.563 523.127 299.577C521.268 298.407 519.172 297.678 516.995 297.444C514.817 297.21 512.616 297.478 510.556 298.227C508.993 298.821 508.205 299.591 508.352 300.077Z" fill="#263238"/>
<path d="M474.94 303.156C475.582 303.98 478.08 303.156 481.086 303.075C484.091 302.994 486.643 303.642 487.231 302.764C487.485 302.346 487.084 301.509 485.975 300.725C484.483 299.774 482.744 299.294 480.981 299.347C479.217 299.4 477.51 299.983 476.076 301.022C475.007 301.887 474.66 302.737 474.94 303.156Z" fill="#263238"/>
<path d="M457.627 265.101C457.46 263.619 457.668 262.118 458.231 260.738C458.794 259.359 459.694 258.147 460.847 257.215C462.037 256.34 463.497 255.92 464.965 256.032C466.433 256.143 467.814 256.778 468.862 257.823C468.64 256.825 468.628 255.792 468.826 254.79C469.024 253.788 469.429 252.839 470.013 252.005C470.598 251.171 471.349 250.47 472.219 249.949C473.088 249.427 474.057 249.096 475.061 248.977C478.922 248.734 482.208 251.678 485.922 252.704C489.636 253.731 493.456 252.839 496.956 251.422C500.456 250.004 503.716 248.032 507.256 246.722C514.736 243.961 522.992 244.296 530.229 247.654C537.466 251.012 543.099 257.122 545.904 264.656C551.074 263.022 556.939 265.682 560.132 270.057C563.324 274.433 564.139 280.293 563.498 285.722C563.001 289.385 562.105 292.981 560.826 296.444C560.826 296.755 560.826 297.052 560.826 297.363C560.572 310.489 559.103 325.911 553.559 326.005C543.9 326.154 546.211 307.747 546.211 307.747C534.348 303.129 538.77 285.168 535.805 282.441C532.839 279.713 526.64 273.393 501.819 286.208C492.174 291.191 479.362 291.043 472.362 289.436L471.748 289.301H471.601C471.533 289.277 471.466 289.25 471.4 289.22C469.15 288.66 467 287.749 465.028 286.519C462.706 285.165 460.871 283.098 459.791 280.618C459.271 279.376 459.121 278.009 459.358 276.682C459.595 275.356 460.21 274.128 461.127 273.15C459.208 270.87 457.991 268.072 457.627 265.101Z" fill="#263238"/>
<path d="M592.38 573.577L594.157 607.486L598.165 656.101H446.365L452.965 584.178L440.033 470.54C441.155 430.379 456.411 413.688 487.618 409.852L485.16 410.163C489.462 409.65 485.16 410.163 487.618 409.852C507.324 416.145 528.469 416.145 548.175 409.852C557.526 410.258 565.288 413.161 573.25 414.714C598.325 419.562 618.965 439.143 624.014 456.199C628.142 470.23 658 591.929 658 591.929H598.565L592.38 573.577Z" fill="#1C6056"/>
<path d="M493.029 352.959C493.534 354.444 494.245 355.849 495.139 357.132C495.592 357.772 496.173 358.308 496.846 358.704C497.518 359.1 498.266 359.347 499.04 359.428C499.867 359.425 500.68 359.213 501.405 358.812C502.131 358.411 502.746 357.834 503.195 357.132C504.076 355.704 504.483 354.03 504.357 352.352C504.357 350.839 503.609 349.043 502.126 348.868C501.502 348.843 500.882 348.978 500.323 349.259L492.534 352.46" fill="#AA6550"/>
<path d="M496.141 359.441C497.55 359.537 498.964 359.363 500.309 358.928C501.671 358.386 502.788 357.358 503.449 356.038C503.821 355.236 504.022 354.362 504.038 353.476C504.054 352.589 503.885 351.709 503.542 350.893C503.368 350.471 503.144 350.072 502.874 349.705C502.554 349.381 502.62 349.394 502.286 349.448C501.858 349.59 501.439 349.757 501.031 349.948L499.695 350.475C498.025 351.15 496.515 351.744 495.246 352.23C492.695 353.189 491.078 353.702 490.998 353.581C490.918 353.459 492.401 352.568 494.859 351.366C496.088 350.772 497.531 350.015 499.2 349.327L500.456 348.76C500.922 348.536 501.399 348.338 501.886 348.165C502.258 348.039 502.662 348.039 503.035 348.165C503.378 348.309 503.674 348.548 503.889 348.854C504.249 349.306 504.545 349.806 504.771 350.34C505.195 351.343 505.394 352.429 505.352 353.52C505.311 354.611 505.03 355.678 504.531 356.646C504.109 357.427 503.538 358.115 502.849 358.669C502.161 359.223 501.37 359.633 500.523 359.873C499.431 360.235 498.26 360.282 497.143 360.009C496.475 359.792 496.115 359.522 496.141 359.441Z" fill="#263238"/>
<path d="M439.779 566.798L404.03 455.848L400.798 437.225C400.798 437.225 391.072 395.687 390.631 391.581C390.137 386.828 387.746 385.936 386.036 386.18C383.364 386.666 381.801 390.231 382.108 394.282C382.215 395.632 384.78 417.914 384.78 417.914C383.276 415.955 381.638 414.105 379.877 412.378C376.177 408.569 368.281 406.976 360.466 408.124C352.651 409.272 350.554 410.244 350.848 413.336C350.928 413.917 351.137 414.473 351.459 414.961C351.78 415.45 352.206 415.859 352.705 416.159C354.273 417.226 356.177 417.668 358.048 417.401C370.593 415.794 374.694 422.222 374.694 422.222L375.121 424.653C375.121 424.653 366.892 419.98 361.068 422.965C360.204 423.406 359.433 424.011 358.797 424.747C357.084 424.942 355.452 425.586 354.062 426.615C352.672 427.644 351.572 429.023 350.871 430.614C350.17 432.205 349.893 433.954 350.067 435.687C350.241 437.42 350.86 439.077 351.863 440.493C352.825 441.844 354.535 443.059 356.071 442.559C356.887 442.207 357.603 441.655 358.155 440.952C358.469 440.602 358.813 440.281 359.184 439.994L361.308 446.651C361.308 446.651 366.892 461.357 368.602 468.028L385.969 579.748C386.543 583.428 387.836 586.955 389.773 590.124C391.71 593.292 394.251 596.04 397.249 598.206C400.247 600.371 403.642 601.912 407.235 602.738C410.828 603.564 414.548 603.658 418.178 603.016C422.082 602.321 425.794 600.789 429.063 598.522C432.332 596.255 435.083 593.306 437.129 589.874C439.176 586.443 440.472 582.607 440.929 578.626C441.386 574.646 440.994 570.612 439.779 566.798Z" fill="#B78876"/>
<path d="M400.25 454.713C398.019 455.605 395.467 454.146 393.998 452.229C392.528 450.311 391.767 447.921 390.444 445.895C386.436 439.818 378.234 437.617 374.574 431.365C374.053 430.487 373.692 429.258 374.427 428.569C375.161 427.881 376.203 428.259 377.098 428.569L399.061 437.901" fill="#B78876"/>
<path d="M399.021 437.955C398.319 437.441 397.556 437.019 396.75 436.699C395.253 435.969 393.063 434.97 390.351 433.741L380.812 429.528L378.034 428.326C376.987 427.664 375.725 427.446 374.52 427.718C374.153 427.884 373.844 428.159 373.634 428.506C373.424 428.853 373.323 429.257 373.345 429.663C373.38 430.328 373.567 430.975 373.892 431.554C374.491 432.574 375.199 433.525 376.003 434.39C379.276 437.847 383.23 439.791 386.196 442.262C387.631 443.365 388.892 444.681 389.937 446.165C390.885 447.516 391.54 449.069 392.288 450.392C392.787 451.521 393.524 452.526 394.447 453.338C395.37 454.149 396.456 454.748 397.631 455.091C399.395 455.429 400.303 454.74 400.223 454.713C399.402 454.823 398.569 454.777 397.765 454.578C396.714 454.172 395.757 453.55 394.957 452.75C394.156 451.95 393.53 450.991 393.116 449.933C392.435 448.582 391.78 447.083 390.845 445.53C389.775 443.921 388.463 442.491 386.957 441.29C383.912 438.684 379.984 436.658 376.978 433.444C376.245 432.669 375.599 431.813 375.054 430.892C374.56 430.028 374.52 429.096 375.054 428.947C375.589 428.799 376.604 429.123 377.539 429.528L380.318 430.689L389.977 434.646C392.742 435.74 394.986 436.618 396.536 437.198C397.325 437.566 398.162 437.82 399.021 437.955Z" fill="#AA6550"/>
<path d="M375.415 424.842C375.115 423.332 374.465 421.916 373.518 420.71C372.433 419.484 370.985 418.646 369.39 418.32C367.401 417.93 365.363 417.857 363.352 418.103C361.273 418.358 359.173 418.399 357.086 418.225C355.332 418.057 353.651 417.428 352.21 416.402C351.726 416.031 351.331 415.554 351.055 415.007C350.78 414.46 350.631 413.856 350.62 413.242C350.591 412.803 350.694 412.365 350.914 411.986C350.995 411.986 350.914 412.445 350.914 413.228C350.974 413.772 351.151 414.295 351.433 414.762C351.714 415.228 352.094 415.627 352.544 415.929C353.923 416.812 355.498 417.332 357.126 417.442C359.163 417.565 361.207 417.497 363.231 417.239C365.336 416.989 367.468 417.098 369.537 417.563C371.274 417.964 372.827 418.944 373.945 420.345C374.675 421.285 375.162 422.395 375.362 423.573C375.485 423.984 375.504 424.421 375.415 424.842Z" fill="#AA6550"/>
<path d="M382.015 392.77C382.316 394.224 382.495 395.701 382.549 397.186C382.83 400.224 383.177 403.843 383.564 407.84C383.952 411.838 384.406 415.443 384.74 418.482C384.997 419.944 385.127 421.426 385.127 422.911C384.632 421.509 384.296 420.055 384.125 418.576C383.658 415.875 383.124 412.108 382.696 407.935C382.269 403.762 382.015 399.967 381.921 397.226C381.788 395.742 381.82 394.247 382.015 392.77Z" fill="#AA6550"/>
<path d="M370.98 430.392C370.522 430.324 370.074 430.201 369.644 430.028C369.096 429.806 368.507 429.709 367.918 429.744C367.329 429.779 366.756 429.945 366.237 430.23C365.924 430.447 365.673 430.743 365.509 431.089C365.345 431.435 365.273 431.819 365.302 432.202C365.35 433.17 365.52 434.127 365.81 435.051C366.194 436.209 366.141 437.468 365.663 438.589C365.339 439.172 364.883 439.669 364.333 440.04C363.783 440.411 363.154 440.645 362.497 440.723C361.851 440.79 361.199 440.724 360.579 440.529C359.959 440.334 359.384 440.014 358.89 439.589C357.972 438.83 357.294 437.816 356.939 436.672C356.491 434.808 356.316 432.888 356.418 430.973C356.441 429.679 356.69 428.399 357.153 427.192C357.302 426.733 357.569 426.322 357.928 426.003C357.928 426.003 357.714 426.462 357.474 427.354C357.161 428.556 357.017 429.797 357.046 431.04C357.03 432.863 357.255 434.68 357.714 436.442C358.014 437.452 358.634 438.334 359.479 438.952C360.324 439.569 361.347 439.888 362.39 439.859C362.907 439.795 363.402 439.612 363.837 439.324C364.273 439.036 364.637 438.651 364.902 438.198C365.29 437.263 365.332 436.218 365.022 435.254C364.744 434.256 364.595 433.225 364.581 432.188C364.571 431.694 364.69 431.207 364.924 430.773C365.158 430.34 365.501 429.976 365.917 429.717C366.51 429.41 367.167 429.25 367.834 429.25C368.5 429.25 369.157 429.41 369.751 429.717C370.592 430.068 371.06 430.338 370.98 430.392Z" fill="#AA6550"/>
<path d="M359.197 438.873C359.197 438.873 359.411 439.318 359.197 440.142C359.033 440.721 358.739 441.253 358.338 441.698C357.937 442.143 357.44 442.489 356.886 442.708C356.042 442.995 355.139 443.055 354.265 442.882C353.392 442.709 352.578 442.309 351.903 441.722C350.301 440.278 349.311 438.267 349.138 436.104C348.908 433.976 349.343 431.827 350.38 429.96C351.234 428.453 352.476 427.207 353.974 426.354C354.959 425.776 356.041 425.387 357.167 425.207C357.575 425.108 358.001 425.108 358.409 425.207C356.967 425.576 355.583 426.144 354.294 426.895C352.798 427.85 351.601 429.215 350.842 430.831C350.083 432.447 349.793 434.248 350.006 436.023C350.158 437.965 351.02 439.78 352.424 441.115C352.99 441.631 353.677 441.995 354.42 442.172C355.162 442.349 355.937 442.334 356.672 442.127C357.165 441.959 357.616 441.686 357.996 441.328C358.376 440.969 358.676 440.533 358.877 440.048C359.157 439.332 359.117 438.873 359.197 438.873Z" fill="#AA6550"/>
<path d="M375.936 452.093C376.598 451.808 377.331 451.737 378.034 451.891C379.87 452.084 381.588 452.898 382.91 454.2L382.202 454.497C382.189 453.486 382.248 452.475 382.375 451.472C383.03 445.611 385.755 441.547 385.916 441.695C386.076 441.844 383.872 445.935 383.244 451.58C383.127 452.548 383.06 453.522 383.043 454.497V455.51L382.349 454.794C381.152 453.59 379.634 452.764 377.98 452.418C376.711 452.188 375.936 452.188 375.936 452.093Z" fill="#AA6550"/>
<path d="M371.488 414.282C371.701 414.363 371.02 416.051 369.177 417.091C367.333 418.13 365.57 417.887 365.61 417.658C365.65 417.428 367.159 417.253 368.749 416.307C370.339 415.362 371.261 414.147 371.488 414.282Z" fill="#AA6550"/>
<path d="M468.1 414.268C468.1 414.268 467.606 414.808 466.764 415.848C465.431 417.313 464.38 419.017 463.665 420.872C463.452 421.503 463.335 422.163 463.318 422.83C463.319 423.541 463.494 424.242 463.825 424.869C464.737 426.255 466.097 427.277 467.673 427.759C471.626 429.012 475.755 429.601 479.896 429.501C482.194 429.501 484.679 429.636 487.217 429.785L491.105 430.244C492.441 430.392 493.777 430.757 495.112 431C500.911 432.197 506.382 434.658 511.143 438.211C513.738 440.168 515.995 442.546 517.823 445.247C518.282 445.954 518.706 446.684 519.092 447.434C519.479 448.231 519.747 449.001 520.067 449.784C520.663 451.382 521.11 453.032 521.403 454.713C522.747 461.791 521.639 469.121 518.264 475.469C514.777 481.77 509.176 486.602 502.473 489.095C499.324 490.289 496.003 490.955 492.641 491.066C489.435 491.085 486.239 490.694 483.129 489.905C480.26 489.159 477.34 488.631 474.393 488.325C471.669 488.059 468.926 488.55 466.457 489.743C464.189 490.974 462.172 492.628 460.512 494.618C458.843 496.509 457.426 498.494 456.024 500.371C453.258 504.138 450.319 507.46 446.899 509.203C445.332 510.052 443.588 510.514 441.81 510.553C440.324 510.571 438.849 510.295 437.468 509.743C436.367 509.299 435.357 508.654 434.489 507.839C433.865 507.226 433.358 506.503 432.993 505.705C432.68 505.057 432.52 504.346 432.525 503.625C432.619 503.625 432.645 504.368 433.246 505.583C433.643 506.313 434.158 506.971 434.769 507.528C435.622 508.266 436.6 508.842 437.655 509.23C439.099 509.769 440.641 509.984 442.175 509.861C443.709 509.737 445.198 509.277 446.539 508.514C449.745 506.799 452.537 503.571 455.236 499.79C456.571 497.9 458.014 495.874 459.711 493.902C461.426 491.767 463.53 489.984 465.909 488.649C468.557 487.335 471.508 486.775 474.446 487.029C477.459 487.324 480.446 487.843 483.383 488.582C486.39 489.333 489.477 489.701 492.574 489.676C495.772 489.543 498.929 488.896 501.926 487.758C508.313 485.361 513.649 480.747 516.981 474.74C520.201 468.675 521.267 461.678 520 454.916C519.692 453.308 519.245 451.731 518.665 450.203C518.344 449.447 518.077 448.663 517.743 447.988C517.393 447.28 517 446.595 516.567 445.936C514.842 443.353 512.713 441.073 510.262 439.183C505.655 435.712 500.359 433.288 494.738 432.08C493.402 431.824 492.067 431.459 490.824 431.311L487.004 430.811C484.492 430.635 482.087 430.527 479.749 430.446C475.509 430.483 471.291 429.803 467.272 428.434C465.599 427.847 464.175 426.699 463.238 425.18C462.87 424.449 462.69 423.636 462.717 422.816C462.753 422.091 462.902 421.375 463.158 420.696C463.939 418.799 465.099 417.084 466.564 415.659C467.009 415.125 467.526 414.657 468.1 414.268Z" fill="#FAFAFA"/>
<path d="M569.723 504.314C569.357 503.34 569.14 502.316 569.082 501.276C568.785 498.442 568.97 495.578 569.63 492.808C570.609 488.682 572.375 484.788 574.826 481.343C577.811 477.116 581.626 473.558 586.035 470.891C590.468 468.318 595.287 466.494 600.302 465.49C604.368 464.641 608.508 464.211 612.659 464.207C615.444 464.176 618.228 464.315 620.995 464.625C622.017 464.667 623.028 464.849 624.001 465.165C624.001 465.408 619.66 464.922 612.673 465.165C608.6 465.318 604.549 465.842 600.569 466.732C595.712 467.799 591.048 469.622 586.743 472.134C582.492 474.704 578.79 478.106 575.855 482.14C573.446 485.426 571.661 489.135 570.592 493.079C569.87 495.743 569.541 498.501 569.616 501.262C569.728 502.275 569.763 503.295 569.723 504.314Z" fill="#FAFAFA"/>
<path d="M642.717 527.811C642.31 528.677 641.779 529.478 641.141 530.188C639.551 532.225 637.76 534.093 635.797 535.765C632.872 538.271 629.634 540.378 626.165 542.031C617.61 546.19 607.935 547.372 598.646 545.394C594.885 544.621 591.242 543.349 587.811 541.612C585.502 540.465 583.314 539.086 581.279 537.494C580.49 536.962 579.787 536.311 579.195 535.563C579.355 535.347 582.401 538.034 588.239 540.721C595.814 544.276 604.22 545.623 612.511 544.612C620.802 543.6 628.649 540.27 635.169 534.995C640.179 530.958 642.504 527.609 642.717 527.811Z" fill="#FAFAFA"/>
<path d="M575.615 523.463C575.229 523.678 574.822 523.851 574.399 523.976C573.254 524.447 572.213 525.145 571.34 526.029C570 527.468 568.956 529.162 568.267 531.012C567.335 533.48 566.611 536.023 566.103 538.615C565.553 541.803 564.831 544.959 563.939 548.068C563.377 549.836 562.6 551.528 561.628 553.105C560.551 554.76 559.237 556.244 557.727 557.507C554.469 560.128 550.713 562.045 546.692 563.138C542.578 564.381 538.223 565.056 533.841 565.92C525.596 567.293 517.78 570.584 511.01 575.535C508.112 577.731 505.547 580.342 503.395 583.286C501.563 585.884 500.101 588.73 499.054 591.74C497.511 596.116 497.025 600.802 497.638 605.406C498.119 608.661 498.853 610.362 498.706 610.416C498.47 610.036 498.282 609.628 498.145 609.201C497.939 608.7 497.765 608.185 497.624 607.661C497.409 606.952 497.235 606.231 497.103 605.501C496.267 600.799 496.616 595.959 498.119 591.429C499.135 588.295 500.593 585.325 502.447 582.611C504.632 579.54 507.252 576.81 510.222 574.509C517.117 569.367 525.12 565.952 533.574 564.543C537.995 563.665 542.31 563.003 546.305 561.842C550.16 560.818 553.769 559.012 556.912 556.535C558.333 555.377 559.576 554.011 560.599 552.483C561.534 551.005 562.287 549.418 562.843 547.757C563.77 544.68 564.537 541.556 565.141 538.399C565.707 535.756 566.508 533.171 567.532 530.674C568.315 528.763 569.485 527.038 570.966 525.61C571.911 524.714 573.05 524.053 574.292 523.679C574.718 523.532 575.165 523.459 575.615 523.463Z" fill="#FAFAFA"/>
<path d="M539.825 517.832C540.287 518.679 540.526 519.632 540.52 520.6C540.653 523.261 539.9 525.89 538.383 528.068C537.36 529.605 535.985 530.87 534.375 531.754C533.467 532.256 532.49 532.615 531.476 532.821C530.401 533.022 529.304 533.068 528.216 532.956C525.88 532.699 523.661 531.792 521.804 530.337C519.765 528.779 518.305 526.571 517.663 524.071C517.254 522.443 517.231 520.74 517.596 519.101C517.99 517.546 518.72 516.098 519.733 514.861C520.599 513.688 521.579 512.607 522.659 511.633C523.18 511.148 523.748 510.718 524.356 510.35C524.982 509.928 525.703 509.673 526.453 509.608L526.627 510.81L525.972 510.972L525.638 509.81C528.068 509.113 530.658 509.256 532.999 510.215C534.784 510.907 536.379 512.024 537.648 513.47C538.461 514.381 539.103 515.433 539.545 516.576C539.825 517.373 539.892 517.818 539.839 517.832C539.114 516.431 538.216 515.129 537.167 513.956C535.902 512.693 534.372 511.733 532.692 511.147C530.543 510.358 528.199 510.296 526.012 510.972L525.678 509.81L526.333 509.621L526.52 510.837C525.374 511.114 524.334 511.724 523.527 512.592C522.543 513.536 521.648 514.571 520.855 515.685C519.928 516.786 519.28 518.1 518.968 519.512C518.657 520.924 518.69 522.391 519.065 523.787C519.64 525.98 520.912 527.92 522.686 529.31C524.343 530.618 526.318 531.453 528.403 531.727C529.368 531.841 530.344 531.818 531.302 531.66C532.203 531.492 533.075 531.197 533.894 530.782C535.378 530.013 536.664 528.903 537.648 527.541C539.134 525.558 539.97 523.155 540.039 520.668C539.999 518.844 539.692 517.872 539.825 517.832Z" fill="#FAFAFA"/>
<path d="M453.619 473.795C453.643 473.915 453.643 474.039 453.619 474.159C453.619 474.429 453.619 474.78 453.619 475.212C453.619 476.198 453.499 477.562 453.419 479.264C453.205 482.802 453.005 487.92 452.724 494.24C452.203 506.893 451.682 524.368 451.281 543.692C450.881 563.017 450.627 580.504 450.44 593.158C450.346 599.451 450.266 604.555 450.213 608.161C450.213 609.876 450.146 611.24 450.133 612.212C450.133 612.644 450.133 612.995 450.133 613.279C450.15 613.4 450.15 613.523 450.133 613.644C450.112 613.523 450.112 613.4 450.133 613.279C450.133 612.995 450.133 612.644 450.133 612.212C450.133 611.226 450.133 609.863 450.133 608.161V593.171C450.133 580.504 450.36 563.017 450.774 543.679C451.188 524.341 451.762 506.88 452.417 494.226C452.764 487.906 453.045 482.788 453.339 479.264C453.472 477.535 453.579 476.171 453.659 475.212C453.659 474.78 453.739 474.429 453.766 474.146C453.703 474.035 453.653 473.917 453.619 473.795Z" fill="#263238"/>
<g opacity="0.2">
<path opacity="0.2" d="M428.09 599.289C435.544 602.894 445.283 595.967 449.09 588.566C449.09 588.566 451.081 572.226 450.814 563.881C450.293 548.432 451.415 533.132 450.894 517.683C449.724 526.933 445.939 535.644 439.993 542.774C438.35 544.732 436.506 546.677 435.892 549.161C434.796 553.618 438.163 561.626 440.327 565.663C447.006 578.006 432.445 599.424 428.571 598.978" fill="black"/>
</g>
<g opacity="0.2">
<path opacity="0.2" d="M567.599 498.48C570.031 529.27 572.471 560.064 574.92 590.862C574.992 593.781 575.533 596.668 576.523 599.41C577.03 600.78 577.852 602.008 578.92 602.994C579.988 603.98 581.273 604.696 582.668 605.082C586.997 605.973 591.205 602.206 592.42 597.911C593.636 593.617 592.674 589.039 591.606 584.704C589.789 577.318 587.745 569.998 585.687 562.679C579.729 541.433 573.767 520.19 567.8 498.953" fill="black"/>
</g>
<path d="M483.864 656.195C484.787 654.675 485.476 653.022 485.908 651.293C486.656 647.958 486.189 642.799 483.624 637.222C482.368 634.427 480.591 631.523 478.801 628.336C476.754 624.953 475.232 621.273 474.286 617.425C473.488 613.058 473.81 608.558 475.221 604.353C476.557 600.004 478.494 595.778 480.057 591.348C483.193 583.067 483.429 573.95 480.725 565.515C479.561 561.863 477.853 558.411 475.662 555.279C473.727 552.557 471.46 550.094 468.915 547.946C465.19 544.843 460.94 542.446 456.371 540.87C453.125 539.776 451.228 539.519 451.255 539.357C451.703 539.331 452.154 539.372 452.591 539.479C453.906 539.672 455.206 539.965 456.478 540.357C461.202 541.737 465.616 544.03 469.476 547.109C472.142 549.258 474.518 551.75 476.543 554.522C478.845 557.733 480.647 561.281 481.887 565.042C484.751 573.747 484.543 583.186 481.299 591.753C479.696 596.264 477.746 600.464 476.463 604.69C475.094 608.67 474.754 612.937 475.475 617.087C476.354 620.826 477.795 624.406 479.75 627.701C481.473 630.902 483.223 633.846 484.465 636.749C486.977 642.543 487.324 647.931 486.362 651.361C486.006 652.672 485.452 653.92 484.719 655.061C484.225 655.871 483.904 656.222 483.864 656.195Z" fill="#FAFAFA"/>
<path d="M609.28 434.038C609.021 435.021 608.566 435.94 607.944 436.739C606.424 439.026 604.45 440.967 602.146 442.438C598.712 444.628 594.799 445.935 590.751 446.246C585.827 446.584 580.885 445.946 576.202 444.369C571.431 442.966 567.07 440.407 563.498 436.915C561.964 435.345 560.712 433.517 559.798 431.513C559.024 429.759 558.536 427.889 558.355 425.976C558.05 423.207 558.571 420.409 559.851 417.941C560.046 417.56 560.27 417.195 560.519 416.848C560.689 416.58 560.886 416.331 561.107 416.105C561.441 415.74 561.641 415.551 561.681 415.592C561.721 415.632 561.08 416.483 560.345 418.184C559.329 420.607 558.987 423.264 559.357 425.868C559.583 427.657 560.088 429.398 560.853 431.027C561.763 432.878 562.973 434.563 564.433 436.01C567.89 439.296 572.071 441.703 576.63 443.032C581.149 444.56 585.912 445.216 590.67 444.963C594.538 444.733 598.296 443.581 601.638 441.601C603.892 440.258 605.884 438.509 607.516 436.442C608.063 435.611 608.651 434.808 609.28 434.038Z" fill="#FAFAFA"/>
<path d="M590.991 579.303C590.991 579.303 590.924 579.181 590.844 578.925C590.764 578.668 590.643 578.263 590.497 577.79C590.203 576.75 589.775 575.292 589.227 573.428L584.685 557.318C580.891 543.665 575.681 524.908 569.99 504.112C567.131 493.713 564.42 483.855 561.975 474.794C560.741 470.533 559.79 466.193 559.129 461.803C558.569 457.957 558.569 454.049 559.129 450.203C559.926 444.579 562.593 439.398 566.691 435.51C567.83 434.502 569.091 433.645 570.445 432.958L571.527 432.499C571.643 432.434 571.77 432.388 571.901 432.364C570.072 433.231 568.376 434.359 566.864 435.713C562.904 439.613 560.354 444.744 559.624 450.284C559.111 454.082 559.152 457.936 559.744 461.722C560.422 466.081 561.386 470.389 562.629 474.618C565.114 483.639 567.853 493.524 570.725 503.922C576.403 524.705 581.546 543.517 585.273 557.183C587.103 563.935 588.573 569.485 589.615 573.388C590.096 575.265 590.483 576.75 590.75 577.804C590.871 578.276 590.964 578.654 591.031 578.952C591.032 579.07 591.018 579.188 590.991 579.303Z" fill="#263238"/>
<path d="M536.579 280.253C536.689 279.293 536.689 278.323 536.579 277.363C536.173 274.744 534.868 272.354 532.892 270.611C529.919 268.072 526.088 266.799 522.205 267.059C517.836 267.059 513.187 268.545 508.378 270.179C505.973 270.976 503.582 271.745 501.231 272.272C498.961 272.779 496.648 273.064 494.324 273.123C490.385 273.227 486.455 272.707 482.675 271.583C480.142 270.812 477.7 269.761 475.394 268.45C474.763 268.108 474.152 267.729 473.564 267.316C473.346 267.188 473.144 267.034 472.963 266.857C472.963 266.857 473.871 267.37 475.528 268.207C477.858 269.41 480.302 270.374 482.822 271.084C486.557 272.124 490.427 272.579 494.297 272.434C496.581 272.357 498.853 272.067 501.084 271.57C503.395 271.043 505.746 270.219 508.164 269.477C512.96 267.843 517.703 266.371 522.191 266.371C526.207 266.148 530.149 267.525 533.172 270.206C535.185 272.03 536.476 274.529 536.806 277.242C536.965 278.249 536.887 279.281 536.579 280.253Z" fill="#455A64"/>
<path d="M554.961 320.617C554.961 320.617 554.828 320.455 554.641 320.117C554.454 319.78 554.213 319.267 553.906 318.591C553.084 316.685 552.457 314.698 552.036 312.663C551.395 309.63 551.188 306.519 551.421 303.426C551.868 299.681 552.574 295.972 553.532 292.326C554.462 288.731 554.462 284.955 553.532 281.36C553.088 279.82 552.318 278.396 551.274 277.188C550.344 276.169 549.178 275.398 547.881 274.946C545.991 274.221 543.895 274.274 542.043 275.094C541.399 275.456 540.794 275.886 540.24 276.377C540.661 275.73 541.241 275.204 541.923 274.851C542.866 274.378 543.893 274.1 544.944 274.035C545.995 273.97 547.048 274.119 548.041 274.473C549.434 274.927 550.692 275.725 551.702 276.796C552.818 278.055 553.652 279.543 554.146 281.158C555.117 284.866 555.117 288.766 554.146 292.474C553.194 296.092 552.476 299.768 551.996 303.48C551.743 306.512 551.896 309.564 552.45 312.555C552.826 314.575 553.376 316.559 554.093 318.483C554.667 319.847 555.015 320.59 554.961 320.617Z" fill="#455A64"/>
<path d="M538.85 278.322C538.821 278.003 538.821 277.682 538.85 277.363C538.85 276.674 538.85 275.77 538.957 274.662C539.105 271.316 538.736 267.967 537.862 264.737C537.206 262.542 536.135 260.496 534.709 258.714C533.095 256.662 530.877 255.182 528.377 254.487C525.578 253.831 522.656 253.952 519.92 254.838C516.958 255.783 514.119 257.084 511.464 258.714C508.77 260.357 505.967 261.81 503.075 263.062C500.316 264.151 497.391 264.745 494.431 264.818C491.762 264.886 489.098 264.558 486.523 263.845C484.292 263.19 482.141 262.285 480.11 261.145C477.182 259.473 474.601 257.244 472.509 254.581C471.933 253.868 471.415 253.11 470.959 252.313C470.78 252.05 470.628 251.769 470.505 251.476C470.723 251.706 470.916 251.959 471.08 252.232C471.572 252.994 472.117 253.72 472.709 254.406C474.853 256.955 477.438 259.087 480.337 260.699C482.348 261.784 484.472 262.64 486.67 263.251C489.197 263.921 491.806 264.222 494.418 264.142C497.297 264.055 500.14 263.465 502.821 262.4C505.68 261.146 508.451 259.698 511.117 258.066C513.824 256.417 516.717 255.103 519.733 254.149C522.586 253.243 525.627 253.131 528.537 253.825C531.161 254.569 533.479 256.146 535.15 258.322C536.612 260.171 537.693 262.297 538.329 264.575C539.187 267.853 539.489 271.255 539.224 274.635C539.157 275.837 539.064 276.755 538.984 277.336C538.981 277.669 538.936 278 538.85 278.322Z" fill="#455A64"/>
<path d="M503.569 615.993L603.508 600.936L601.905 591.942H655.609L657.172 605.771C658.317 611.781 658.142 617.972 656.659 623.906C655.175 629.84 652.42 635.372 648.587 640.11C644.755 644.848 639.939 648.678 634.481 651.327C629.023 653.975 623.055 655.379 617.001 655.439L500.483 654.089L503.569 615.993Z" fill="#B78876"/>
<path d="M510.783 617.735C510.249 617.911 503.516 614.859 497.491 612.037C491.094 609.031 484.07 607.641 477.024 607.985L449.251 609.417C449.251 609.417 450.961 614.049 453.913 615.696C456.866 617.344 474.126 617.695 474.126 617.695L473.231 618.613C469.596 622.401 464.636 624.597 459.417 624.731L456.745 624.798C454.776 624.64 452.83 624.255 450.948 623.65L444.094 620.855C442.024 619.91 439.833 620.058 438.924 622.205C438.109 624.109 438.711 626.743 444.375 629.619C447.528 631.226 459.257 635.331 459.257 635.331C459.333 637.014 459.561 638.687 459.938 640.328C460.446 642.056 465.055 643.771 465.055 643.771C466.25 646.338 467.616 648.819 469.143 651.199C469.677 651.806 473.858 653.116 478.294 654.386C485.457 656.422 493.045 656.361 500.176 654.21L510.77 651.023V618.438" fill="#B78876"/>
<path d="M472.776 639.018C467.883 638.888 463.085 637.613 458.762 635.291C458.843 635.102 461.875 636.29 465.736 637.303C469.597 638.316 472.803 638.815 472.776 639.018Z" fill="#AA6550"/>
<path d="M471.801 645.595C470.501 645.879 469.147 645.78 467.9 645.311C466.589 645.071 465.372 644.463 464.387 643.555C465.644 643.825 466.881 644.186 468.087 644.636C469.346 644.866 470.587 645.186 471.801 645.595Z" fill="#AA6550"/>
<path d="M629.866 624.488C629.732 624.488 629.077 622.529 627.474 619.572C626.535 617.843 625.463 616.19 624.268 614.63C622.806 612.723 621.183 610.947 619.419 609.322C617.627 607.725 615.706 606.284 613.674 605.015C612.012 603.983 610.275 603.08 608.478 602.314C605.392 601.031 603.348 600.572 603.388 600.437C603.883 600.477 604.372 600.577 604.844 600.734C605.405 600.845 605.959 600.994 606.501 601.179C607.142 601.382 607.836 601.585 608.665 601.909C610.517 602.614 612.305 603.482 614.008 604.501C616.095 605.761 618.063 607.212 619.886 608.836C621.675 610.487 623.316 612.294 624.789 614.238C625.971 615.845 627.012 617.553 627.902 619.342C628.316 620.085 628.583 620.814 628.864 621.436C629.099 621.962 629.299 622.503 629.465 623.056C629.657 623.515 629.791 623.995 629.866 624.488Z" fill="#AA6550"/>
<path d="M476.877 615.21C476.263 616.067 475.545 616.843 474.74 617.519C472.894 619.281 470.865 620.834 468.688 622.151C466.484 623.449 464.089 624.383 461.594 624.92C460.577 625.199 459.521 625.313 458.468 625.257C458.401 625.001 463.277 624.555 468.327 621.544C470.468 620.245 472.501 618.773 474.406 617.141C475.166 616.418 475.993 615.772 476.877 615.21Z" fill="#AA6550"/>
<path d="M189.483 583.178C191.861 583.178 171.288 639.059 165.985 653.332C165.397 654.912 164.996 656.303 164.996 656.303L309.034 656.546L307.337 521.059C307.343 520.969 307.343 520.879 307.337 520.789L295.314 423.883C295.255 423.414 295.06 422.972 294.753 422.614C294.447 422.256 294.042 421.998 293.591 421.871C287.886 420.318 267.327 414.957 251.603 414.363C233.181 413.674 206.516 417.374 206.516 417.374C206.516 417.374 182.563 419.778 169.338 424.639C168.827 424.824 168.394 425.182 168.114 425.652C167.834 426.122 167.724 426.676 167.802 427.219L189.483 583.178Z" fill="#1C6056"/>
<path d="M255.998 523.085C255.815 523.697 255.573 524.289 255.277 524.854C254.983 525.538 254.644 526.201 254.262 526.839C253.8 527.708 253.291 528.551 252.739 529.364C252.09 530.372 251.386 531.341 250.628 532.268C249.795 533.348 248.903 534.38 247.956 535.36C245.756 537.601 243.339 539.614 240.742 541.369C238.108 543.071 235.316 544.509 232.406 545.664C231.07 546.136 229.734 546.623 228.519 546.933C227.377 547.261 226.217 547.522 225.045 547.716C224.087 547.903 223.119 548.038 222.146 548.122C221.412 548.223 220.671 548.273 219.929 548.27C219.303 548.34 218.671 548.34 218.045 548.27C218.045 548.122 220.717 548.135 224.952 547.271C226.101 547.042 227.238 546.753 228.358 546.406C229.587 546.082 230.843 545.583 232.166 545.056C235.021 543.89 237.763 542.457 240.355 540.775C242.916 539.051 245.309 537.084 247.502 534.901C248.477 533.861 249.439 532.902 250.174 531.89C250.941 530.994 251.659 530.056 252.325 529.081C254.836 525.529 255.865 523.017 255.998 523.085Z" fill="#263238"/>
<g opacity="0.2">
<path opacity="0.2" d="M169.886 642.732C176.636 645.528 183.986 646.517 191.224 645.601C198.463 644.686 205.345 641.897 211.205 637.506C216.402 633.697 220.757 628.714 226.368 625.541C234.143 621.166 243.401 620.747 252.285 620.139C264.161 619.275 276.144 617.803 287.312 613.617C289.642 612.928 291.755 611.639 293.444 609.876C294.98 607.999 295.501 605.042 293.992 603.124C292.482 601.206 289.61 601.071 287.138 601.152C249.893 602.26 215.854 605.271 179.598 613.981" fill="black"/>
</g>
<path d="M210.03 274.959C221.545 263.103 239.714 256.053 254.756 262.806C264.882 267.289 271.749 276.89 280.632 283.521C287.098 288.355 295.087 292.096 298.48 299.469C301.473 305.965 300.03 313.541 299.308 320.671C298.587 327.801 299.095 336.025 304.559 340.603C307.417 342.993 311.238 343.952 314.431 345.816C320.937 349.583 324.798 356.916 326.187 364.357C327.576 371.798 326.828 379.468 326.08 387.017L295.074 392.986L289.984 384.33L288.234 397.901L248.664 401.507L210.03 274.959Z" fill="#263238"/>
<path d="M204.913 287.896V296.606L202.469 427.34C202.255 442.492 216.602 455.388 232.66 455.496C248.865 455.604 255.477 443.343 255.945 427.988C256.426 411.932 257.281 395.025 257.281 395.025C257.281 395.025 277.841 392.162 282.823 365.316C285.295 351.947 285.228 329.921 284.6 311.893C284.467 308.046 283.566 304.266 281.95 300.781C280.335 297.295 278.038 294.176 275.199 291.611C272.359 289.047 269.036 287.089 265.429 285.856C261.821 284.624 258.005 284.142 254.208 284.439L204.913 287.896Z" fill="#FFBE9D"/>
<path d="M277.439 329.219C277.425 330.121 277.062 330.981 276.428 331.614C275.793 332.248 274.938 332.605 274.046 332.609C273.61 332.632 273.173 332.567 272.762 332.417C272.351 332.268 271.973 332.036 271.652 331.737C271.331 331.437 271.072 331.076 270.891 330.673C270.711 330.271 270.611 329.836 270.6 329.395C270.617 328.493 270.981 327.633 271.614 326.998C272.248 326.363 273.101 326.002 273.993 325.992C274.43 325.968 274.868 326.033 275.28 326.184C275.692 326.335 276.07 326.567 276.392 326.868C276.713 327.169 276.971 327.532 277.151 327.936C277.331 328.34 277.429 328.776 277.439 329.219Z" fill="#263238"/>
<path d="M279.457 323.169C279.016 323.615 276.478 321.589 272.777 321.508C269.077 321.427 266.338 323.196 265.951 322.724C265.764 322.521 266.218 321.724 267.42 320.887C269.042 319.807 270.957 319.268 272.898 319.347C274.834 319.38 276.708 320.043 278.241 321.238C279.31 322.143 279.671 322.967 279.457 323.169Z" fill="#263238"/>
<path d="M241.13 329.219C241.112 330.12 240.748 330.978 240.114 331.611C239.48 332.244 238.627 332.602 237.736 332.609C237.3 332.632 236.863 332.567 236.452 332.417C236.041 332.268 235.663 332.036 235.342 331.737C235.021 331.437 234.762 331.076 234.582 330.673C234.401 330.271 234.302 329.836 234.29 329.395C234.307 328.493 234.671 327.633 235.304 326.998C235.938 326.363 236.791 326.002 237.683 325.992C238.12 325.968 238.558 326.033 238.97 326.184C239.382 326.335 239.76 326.567 240.082 326.868C240.403 327.169 240.661 327.532 240.841 327.936C241.021 328.34 241.119 328.776 241.13 329.219Z" fill="#263238"/>
<path d="M243.2 322.859C242.759 323.291 240.221 321.279 236.521 321.184C232.82 321.089 230.082 322.886 229.694 322.413C229.507 322.21 229.961 321.4 231.164 320.576C232.786 319.496 234.7 318.953 236.641 319.023C238.576 319.059 240.449 319.722 241.985 320.914C243.053 321.832 243.414 322.656 243.2 322.859Z" fill="#263238"/>
<path d="M255.825 350.907C255.825 350.691 258.122 350.353 261.836 349.975C262.785 349.907 263.68 349.745 263.854 349.097C263.963 348.117 263.772 347.127 263.306 346.261C262.491 343.925 261.623 341.494 260.714 338.928C257.134 328.517 254.569 320.023 254.983 319.807C255.397 319.591 258.643 328.004 262.224 338.429C263.092 340.995 263.92 343.439 264.695 345.789C265.263 346.948 265.401 348.276 265.083 349.529C264.938 349.862 264.719 350.157 264.443 350.391C264.168 350.626 263.842 350.793 263.493 350.88C262.969 351.011 262.429 351.07 261.89 351.055C258.149 351.123 255.838 351.069 255.825 350.907Z" fill="#263238"/>
<path d="M257.174 395.025C244.591 394.871 232.298 391.187 221.666 384.384C221.666 384.384 229.828 403.168 256.64 401.385L257.174 395.025Z" fill="#EB996E"/>
<path d="M254.021 359.792C253.346 358.875 252.451 358.145 251.421 357.673C250.39 357.201 249.258 357.001 248.13 357.092C247.314 357.145 246.518 357.363 245.788 357.735C245.058 358.106 244.41 358.622 243.882 359.252C243.374 359.86 243.063 360.61 242.989 361.401C242.915 362.193 243.082 362.989 243.468 363.682C244.047 364.363 244.813 364.855 245.669 365.095C246.525 365.335 247.433 365.313 248.277 365.032C250.03 364.455 251.654 363.538 253.059 362.331C253.486 362.046 253.854 361.679 254.141 361.251C254.272 361.05 254.341 360.816 254.341 360.576C254.341 360.336 254.272 360.101 254.141 359.901" fill="#EB996E"/>
<path d="M244.91 353.135C245.511 353.135 245.404 357.186 248.744 360.13C252.084 363.074 256.372 362.763 256.386 363.331C256.386 363.587 255.41 364.1 253.607 364.087C251.263 364.061 249.005 363.195 247.235 361.643C245.531 360.158 244.467 358.06 244.269 355.795C244.149 354.094 244.63 353.108 244.91 353.135Z" fill="#263238"/>
<path d="M244.376 312.015C243.975 313.014 240.368 312.433 235.973 312.838C231.578 313.244 228.105 314.337 227.557 313.419C227.316 312.974 227.944 312.069 229.387 311.096C231.303 309.949 233.452 309.257 235.671 309.072C237.891 308.887 240.123 309.215 242.198 310.03C243.761 310.718 244.536 311.542 244.376 312.015Z" fill="#263238"/>
<path d="M279.591 315.647C278.776 316.471 275.717 315.499 271.989 315.35C268.262 315.202 265.123 315.728 264.415 314.824C264.107 314.391 264.628 313.554 266.031 312.798C267.959 311.846 270.103 311.426 272.243 311.583C274.375 311.654 276.45 312.297 278.255 313.446C279.537 314.351 279.951 315.242 279.591 315.647Z" fill="#263238"/>
<path d="M177.353 422.168C177.353 422.168 134.391 432.35 126.055 473.484C122.22 492.39 116.863 601.058 141.898 617.979C174.214 639.774 215.373 619.95 215.373 619.95L210.03 567.392H183.312L179.718 509.81C180.76 514.307 177.353 422.168 177.353 422.168Z" fill="#1C6056"/>
<path d="M330.181 603.043C338.609 602.169 346.388 598.075 351.927 591.596C357.467 585.117 360.35 576.744 359.985 568.189L342.432 492.795C342.432 492.795 331.05 428.11 295.074 422.276L307.337 520.857L306.162 541.639C306.162 541.639 306.723 555.387 308.099 581.153L330.181 603.043Z" fill="#1C6056"/>
<path d="M334.83 555.873C332.661 555.954 330.5 556.193 328.365 556.589C323.209 557.647 318.486 560.243 314.805 564.042C311.124 567.84 308.653 572.666 307.711 577.898C307.362 580.069 307.17 582.262 307.137 584.461C306.996 583.878 306.929 583.279 306.937 582.679C306.865 581.048 306.963 579.414 307.23 577.804C308.084 572.43 310.574 567.46 314.352 563.582C318.13 559.705 323.009 557.114 328.311 556.17C329.901 555.874 331.517 555.738 333.134 555.765C333.702 555.731 334.271 555.767 334.83 555.873Z" fill="#263238"/>
<path d="M223.99 271.948C228.826 278.511 231.124 283.548 234.022 295.229C235.452 300.941 230.843 304.979 226.274 308.477C225.783 308.854 225.206 309.1 224.596 309.193C223.985 309.285 223.362 309.221 222.783 309.005C222.204 308.79 221.688 308.431 221.283 307.961C220.877 307.491 220.595 306.925 220.463 306.316C220.463 306.316 222.039 324.209 215.64 332.23C212.648 335.998 212.514 340.819 213.222 344.884C214.025 349.018 216.014 352.822 218.94 355.822C226.368 363.709 228.425 376.578 223.308 386.247C221.826 388.623 220.466 391.075 219.234 393.593C218.611 395.096 218.323 396.719 218.392 398.347C218.471 399.302 218.187 400.252 217.6 401.004C217.012 401.756 216.164 402.254 215.226 402.398C193.242 405.612 170.967 406.287 148.832 404.41C148.07 404.348 147.348 404.047 146.765 403.548C146.183 403.048 145.77 402.377 145.585 401.628C143.849 394.12 146.748 386.018 150.448 379.265C154.589 371.636 159.799 364.316 161.282 355.741C162.618 347.639 160.441 338.969 163.647 331.434C167.654 322.21 178.342 317.849 183.685 309.381C188.748 301.4 188.334 290.935 192.863 282.643C198.688 271.975 212.995 267.059 224.03 271.934" fill="#263238"/>
<path d="M225.219 281.846C233.622 286.222 237.509 296.607 245.672 301.414C253.099 305.789 262.371 304.641 270.88 303.345C270.573 301.441 270.252 299.523 269.932 297.619C270.698 299.343 271.766 300.912 273.085 302.251C273.754 302.912 274.589 303.376 275.5 303.595C276.41 303.814 277.362 303.779 278.255 303.494C281.113 302.332 281.487 298.362 280.766 295.391C279.46 290.556 276.895 286.163 273.338 282.67C266.984 276.151 258.521 272.162 249.496 271.433C240.471 270.704 231.488 273.284 224.19 278.7" fill="#263238"/>
<path d="M303.997 474.078C304.059 474.43 304.086 474.788 304.078 475.145C304.078 475.901 304.078 476.914 304.171 478.183C304.171 480.884 304.358 484.652 304.558 489.365C304.946 498.818 305.814 511.836 306.87 526.218C307.925 540.6 308.713 553.645 308.967 563.098C309.101 567.824 309.167 571.646 309.127 574.293C309.127 575.562 309.127 576.575 309.127 577.331C309.159 577.686 309.159 578.043 309.127 578.398C309.066 578.046 309.039 577.688 309.047 577.331C309.047 576.575 309.047 575.562 308.954 574.293C308.954 571.592 308.767 567.838 308.566 563.111C308.192 553.658 307.31 540.654 306.268 526.258C305.226 511.863 304.411 498.845 304.158 489.392C304.024 484.665 303.971 480.83 303.997 478.183C303.997 476.914 303.997 475.901 303.997 475.145C303.974 474.79 303.974 474.433 303.997 474.078Z" fill="#263238"/>
<path d="M183.351 567.405C183.291 567.158 183.259 566.904 183.258 566.649C183.258 566.069 183.178 565.299 183.111 564.475C183.004 562.49 182.857 559.803 182.683 556.508C182.296 549.755 181.708 540.478 181.014 530.201C180.319 519.925 179.678 510.728 179.21 503.909C178.996 500.627 178.823 497.926 178.689 495.941C178.689 495.064 178.609 494.348 178.582 493.781C178.55 493.525 178.55 493.267 178.582 493.011C178.647 493.258 178.688 493.512 178.702 493.767C178.702 494.334 178.849 495.05 178.943 495.928C179.13 497.9 179.384 500.587 179.691 503.882C180.279 510.634 181.027 519.884 181.695 530.161C182.363 540.438 182.897 549.742 183.151 556.481C183.271 559.857 183.365 562.584 183.378 564.462V566.636C183.404 566.892 183.395 567.151 183.351 567.405Z" fill="#263238"/>
<path d="M183.351 567.405C183.351 567.527 182.016 567.594 179.851 568.31C177.113 569.226 174.68 570.893 172.824 573.125C170.967 575.357 169.761 578.066 169.338 580.95C169.004 583.165 169.177 584.569 169.057 584.583C168.937 584.596 168.924 584.245 168.843 583.61C168.744 582.713 168.744 581.807 168.843 580.91C169.156 577.882 170.356 575.018 172.29 572.686C174.246 570.376 176.828 568.696 179.718 567.851C180.59 567.605 181.486 567.451 182.39 567.392C183.004 567.324 183.351 567.351 183.351 567.405Z" fill="#263238"/>
<path d="M215.306 619.964C215.222 619.692 215.168 619.411 215.146 619.126C215.066 618.505 214.973 617.708 214.839 616.723C214.598 614.548 214.264 611.564 213.85 607.891C213.062 600.356 211.993 590.079 210.818 578.735C210.43 574.792 210.043 570.971 209.696 567.432L210.03 567.743L188.655 567.608L182.443 567.513H180.787C180.596 567.536 180.403 567.536 180.212 567.513C180.399 567.463 180.593 567.44 180.787 567.446H182.443L188.655 567.351L210.03 567.23H210.324V567.54L211.472 578.83C212.568 590.187 213.556 600.437 214.291 608.026C214.612 611.699 214.879 614.697 215.066 616.871C215.146 617.857 215.2 618.667 215.253 619.288C215.289 619.512 215.307 619.737 215.306 619.964Z" fill="#263238"/>
<path d="M215.307 619.964C214.976 620.107 214.637 620.228 214.291 620.328L211.366 621.274C208.814 622.084 205.114 623.218 200.491 624.461C195.081 625.955 189.584 627.109 184.033 627.918C177.191 628.853 170.237 628.519 163.513 626.932C160.029 626.172 156.594 625.197 153.227 624.015C151.61 623.421 150.021 622.827 148.484 622.178C147.723 621.854 146.961 621.544 146.24 621.152L145.145 620.598L144.116 619.937C141.605 618.219 139.423 616.055 137.677 613.549C136.141 611.393 134.8 609.101 133.669 606.703C132.082 603.234 130.742 599.656 129.661 595.994C129.261 594.643 128.967 593.698 128.793 593.009C128.684 592.66 128.599 592.304 128.539 591.942C128.699 592.272 128.829 592.615 128.927 592.969L129.915 595.913C131.101 599.519 132.511 603.046 134.137 606.473C135.276 608.837 136.617 611.096 138.144 613.225C139.869 615.656 142.014 617.752 144.477 619.41L145.465 620.045L146.521 620.585C147.215 620.963 147.977 621.26 148.738 621.584C150.261 622.219 151.838 622.813 153.454 623.38C156.795 624.552 160.203 625.517 163.66 626.27C170.309 627.839 177.182 628.192 183.953 627.31C189.484 626.531 194.965 625.431 200.371 624.015C204.993 622.826 208.707 621.76 211.286 621.044L214.251 620.22C214.593 620.099 214.947 620.013 215.307 619.964Z" fill="#263238"/>
<path d="M192.636 303.939C193.919 300.752 194.232 297.25 193.535 293.882C192.838 290.514 191.162 287.433 188.722 285.033C186.214 282.716 183.143 281.113 179.822 280.387C176.501 279.661 173.05 279.839 169.819 280.901C166.876 281.797 164.289 283.612 162.431 286.087C159.158 290.651 159.759 297.376 163.179 301.873C164.968 304.049 167.196 305.815 169.714 307.051C172.232 308.288 174.982 308.967 177.781 309.044C183.388 309.157 188.949 307.994 194.052 305.641" fill="#263238"/>
<path d="M237.055 518.115C246.406 525.907 268.396 544.354 268.396 544.354L280.699 542.139L243.401 510.418C242.434 509.6 241.196 509.186 239.937 509.259C238.679 509.331 237.496 509.886 236.628 510.809C236.156 511.305 235.792 511.894 235.556 512.539C235.321 513.184 235.221 513.871 235.261 514.557C235.301 515.243 235.481 515.913 235.79 516.526C236.099 517.138 236.529 517.679 237.055 518.115Z" fill="#455A64"/>
<path d="M236.133 514.064L231.297 509.648C230.842 509.231 230.565 508.653 230.523 508.033C230.48 507.414 230.676 506.802 231.07 506.326C231.277 506.082 231.53 505.882 231.815 505.738C232.1 505.594 232.411 505.51 232.728 505.49C233.046 505.47 233.364 505.514 233.665 505.621C233.965 505.727 234.241 505.894 234.477 506.11L239.139 510.431L236.133 514.064Z" fill="#455A64"/>
<path d="M250.481 516.441C249.662 517.819 248.649 519.07 247.475 520.154C246.463 521.394 245.285 522.485 243.975 523.395C244.796 522.014 245.808 520.759 246.981 519.668C247.986 518.426 249.165 517.339 250.481 516.441Z" fill="#263238"/>
<path d="M250.828 531.971C249.512 531.272 248.264 530.449 247.101 529.513C244.884 527.892 241.878 525.543 238.712 522.761C237.09 521.54 235.75 519.978 234.784 518.183C234.1 516.611 234.057 514.83 234.664 513.227C235.069 512.162 235.753 511.229 236.641 510.526C237.269 510.053 237.683 509.905 237.696 509.945C237.71 509.986 237.362 510.215 236.815 510.742C236.038 511.485 235.46 512.414 235.132 513.443C234.636 514.926 234.722 516.545 235.372 517.967C236.336 519.651 237.632 521.117 239.179 522.275C242.319 525.043 245.258 527.447 247.409 529.162C248.605 530.025 249.747 530.963 250.828 531.971Z" fill="#263238"/>
<path d="M210.444 571.605C219.314 568.607 228.719 570.633 237.576 567.621C240.617 566.813 243.466 565.394 245.952 563.449C248.771 560.923 250.2 557.21 252.445 554.158C259.124 545.029 271.668 543.138 282.863 542.004C285.459 541.582 288.108 541.618 290.692 542.112C291.983 542.375 293.186 542.971 294.183 543.842C295.18 544.712 295.937 545.828 296.383 547.082C297.104 549.634 295.474 552.821 292.856 553.091C295.314 553.199 297.024 555.711 297.478 558.155C297.932 560.599 297.478 563.111 297.852 565.569C298.306 569.026 300.177 572.253 300.07 575.737C299.923 580.504 296.062 584.434 291.654 586.271C287.245 588.107 282.476 588.35 277.814 588.972C254.836 592.24 237.469 605.406 215.306 615.359" fill="#FFBE9D"/>
<path d="M297.692 561.329C297.918 561.701 298.217 562.023 298.571 562.273C298.925 562.524 299.326 562.698 299.749 562.786C300.173 562.873 300.609 562.872 301.032 562.781C301.455 562.691 301.855 562.514 302.207 562.26C302.893 561.709 303.417 560.978 303.723 560.148C304.029 559.317 304.105 558.418 303.944 557.547C303.594 555.805 302.833 554.175 301.726 552.794C299.775 550.24 297.631 547.843 295.314 545.623L288.234 551.646L297.692 561.329Z" fill="#FFBE9D"/>
<path d="M295.074 553.469C295.074 553.699 290.719 553.334 285.468 554.158C280.218 554.982 276.117 556.575 276.117 556.372C276.917 555.84 277.79 555.43 278.709 555.157C280.878 554.379 283.114 553.81 285.388 553.456C287.664 553.107 289.969 552.985 292.268 553.091C293.217 553.079 294.161 553.207 295.074 553.469Z" fill="#EB996E"/>
<path d="M298.2 567.541C298.2 567.757 294.553 567 290.051 567.135C285.549 567.27 281.968 568.162 281.928 567.946C287.172 566.068 292.871 565.926 298.2 567.541Z" fill="#EB996E"/>
<path d="M297.452 563.381C297.331 563.381 297.452 562.328 297.251 560.68C296.994 558.542 296.259 556.492 295.1 554.685C294.822 554.248 294.519 553.829 294.192 553.429L293.992 553.172L294.205 552.956C294.815 552.33 295.293 551.587 295.612 550.77C295.931 549.954 296.084 549.08 296.062 548.203C296.062 546.852 295.661 546.096 295.755 546.055C296.232 546.657 296.496 547.404 296.503 548.176C296.605 549.137 296.495 550.109 296.181 551.022C295.867 551.935 295.357 552.766 294.686 553.456V552.983C295.037 553.414 295.363 553.865 295.661 554.333C296.882 556.232 297.591 558.42 297.719 560.68C297.825 561.59 297.734 562.511 297.452 563.381Z" fill="#EB996E"/>
<path d="M297.705 560.559L309.354 571.605L310.837 578.168L300.07 575.71C298.52 570.174 297.385 564.894 297.705 560.559Z" fill="#455A64"/>
<path d="M281.928 574.63C281.688 575.062 219.033 606.284 219.033 606.284V613.036L282.97 579.411L362.283 576.426V571.673L281.928 574.63Z" fill="#F5F5F5"/>
<path d="M219.033 613.968C219.474 613.671 288.207 607.405 288.207 607.405L362.283 576.345L282.97 579.37L219.033 612.995V613.968Z" fill="#263238"/>
<path d="M284.841 597.344C284.293 593.698 287.74 590.592 291.253 589.606C294.766 588.621 298.52 589.026 302.074 588.256C304.329 587.63 306.535 586.835 308.673 585.879C319.628 581.639 331.651 581.409 343.407 581.247C344.09 582.857 344.197 584.657 343.709 586.338C343.221 588.019 342.17 589.475 340.735 590.457C341.706 593.362 341.578 596.528 340.374 599.343C339.163 602.131 337.506 604.7 335.472 606.946C333.936 609.002 331.958 610.678 329.687 611.848C327.312 612.728 324.787 613.123 322.259 613.009C314.378 613.171 305.935 613.185 299.429 608.715C294.366 605.231 290.866 599.262 285.001 597.506H286.337" fill="#FFBE9D"/>
<path d="M337.342 592.928C336.851 593.04 336.348 593.09 335.845 593.077L331.731 593.212C328.258 593.293 323.462 593.347 318.171 593.374H310.69C309.571 593.39 308.456 593.222 307.391 592.874C306.439 592.535 305.607 591.919 304.999 591.105C304.744 590.769 304.558 590.384 304.453 589.973C304.347 589.563 304.324 589.135 304.385 588.715C304.485 588.088 304.774 587.508 305.213 587.054C305.377 586.859 305.582 586.705 305.813 586.602C306.045 586.499 306.296 586.45 306.549 586.46C306.092 586.62 305.68 586.889 305.347 587.243C304.918 587.736 304.682 588.37 304.682 589.026C304.682 589.682 304.918 590.315 305.347 590.808C305.913 591.515 306.669 592.04 307.524 592.321C308.539 592.621 309.594 592.757 310.65 592.726H318.118C323.462 592.726 328.204 592.726 331.677 592.726L335.792 592.807C336.312 592.778 336.833 592.819 337.342 592.928Z" fill="#EB996E"/>
<path d="M333.307 599.599C332.691 599.777 332.061 599.899 331.424 599.964C330.195 600.166 328.418 600.423 326.214 600.639C323.617 600.903 321.004 600.961 318.398 600.815C315.216 600.553 312.061 600.02 308.967 599.221C303.382 597.844 297.656 597.132 291.907 597.101C289.703 597.101 287.9 597.182 286.684 597.25C286.04 597.306 285.391 597.306 284.747 597.25C285.372 597.079 286.012 596.97 286.657 596.925C288.395 596.709 290.143 596.582 291.894 596.547C297.693 596.426 303.482 597.075 309.114 598.478C312.185 599.269 315.311 599.82 318.465 600.126C321.041 600.304 323.625 600.304 326.2 600.126C328.404 599.977 330.208 599.788 331.41 599.68C332.038 599.589 332.674 599.562 333.307 599.599Z" fill="#EB996E"/>
<path d="M326.775 606.73C326.293 606.878 325.795 606.969 325.292 607C324.344 607.135 322.954 607.31 321.284 607.459C316.797 607.935 312.266 607.785 307.818 607.013C302.542 606 298.467 603.273 295.301 602.017C293.593 601.315 291.827 600.769 290.024 600.383C290.524 600.32 291.03 600.348 291.52 600.464C292.893 600.672 294.238 601.039 295.528 601.557C298.801 602.732 302.876 605.339 308.005 606.325C312.417 607.078 316.902 607.291 321.364 606.959L325.372 606.73C325.838 606.677 326.309 606.677 326.775 606.73Z" fill="#EB996E"/>
<g opacity="0.2">
<path opacity="0.2" d="M309.007 570.471C309.521 565.52 310.839 560.688 312.908 556.17C315.002 551.654 318.548 547.988 322.968 545.772C325.188 544.699 327.642 544.216 330.098 544.367C332.555 544.518 334.933 545.299 337.008 546.636C338.261 547.453 339.239 548.635 339.813 550.026C340.094 550.719 340.178 551.477 340.058 552.216C339.938 552.955 339.617 553.646 339.132 554.212C337.663 555.805 335.124 555.562 333.014 555.454C328.087 555.318 323.225 556.611 319.004 559.182C314.783 561.752 311.378 565.492 309.194 569.958" fill="black"/>
</g>
<g opacity="0.2">
<path opacity="0.2" d="M192.997 566.366C198.34 556.683 196.417 544.543 192.342 534.28C188.268 524.017 182.189 514.564 179.077 503.949C178.491 525.481 181.587 546.952 188.228 567.419" fill="black"/>
</g>
<path d="M202.401 418.266C202.401 418.266 208.881 433.701 232.259 432.715C255.637 431.729 256.386 413.404 256.386 413.404L272.029 430.217L257.174 461.155L237.215 476.212L210.03 464.922L187.626 447.367L202.401 418.266Z" fill="#1C6056"/>
<g opacity="0.5">
<path opacity="0.5" d="M147.656 484.247C147.896 484.544 144.85 487.434 140.829 490.688C136.808 493.943 133.375 496.333 133.135 496.022C132.894 495.712 135.94 492.849 139.948 489.594C143.955 486.34 147.415 483.936 147.656 484.247Z" fill="#FAFAFA"/>
</g>
<path d="M158.651 467.596C158.53 467.947 154.843 466.894 150.849 464.396C146.855 461.897 144.25 459.075 144.503 458.805C144.757 458.535 147.696 460.817 151.57 463.207C155.444 465.598 158.758 467.218 158.651 467.596Z" fill="#FAFAFA"/>
<path d="M178.689 469.406C179.01 469.649 176.017 473.984 172.691 479.493C169.364 485.003 166.786 489.595 166.439 489.419C166.092 489.243 168.082 484.328 171.515 478.751C174.949 473.173 178.409 469.163 178.689 469.406Z" fill="#FAFAFA"/>
<path d="M161.536 516.333C161.269 516.576 158.183 513.389 155.485 508.676C152.786 503.963 151.557 499.682 151.904 499.561C152.252 499.439 154.028 503.382 156.687 507.96C159.345 512.538 161.844 516.063 161.536 516.333Z" fill="#FAFAFA"/>
<path d="M143.608 539.033C143.234 539.033 142.446 535.657 141.872 531.363C141.297 527.068 141.137 523.544 141.511 523.49C141.885 523.436 142.673 526.879 143.248 531.174C143.822 535.468 143.956 538.979 143.608 539.033Z" fill="#FAFAFA"/>
<g opacity="0.5">
<path opacity="0.5" d="M160.494 545.218C160.16 545.029 161.83 541.41 164.328 537.116C166.827 532.821 169.031 529.54 169.365 529.729C169.699 529.918 168.029 533.55 165.531 537.831C163.033 542.112 160.828 545.367 160.494 545.218Z" fill="#FAFAFA"/>
</g>
<path d="M140.883 568.729C140.602 568.985 137.623 566.028 134.724 561.761C131.825 557.493 130.182 553.658 130.503 553.456C130.824 553.253 133.028 556.778 135.847 560.964C138.665 565.15 141.177 568.472 140.883 568.729Z" fill="#FAFAFA"/>
<path d="M167.534 564.853C167.801 565.123 164.729 568.702 160.681 572.834C156.633 576.966 153.12 580.113 152.839 579.843C152.559 579.573 155.631 575.994 159.693 571.848C163.754 567.702 167.254 564.583 167.534 564.853Z" fill="#FAFAFA"/>
<g opacity="0.5">
<path opacity="0.5" d="M152.385 613.374C152.131 613.644 149.166 611.159 146.467 607.243C143.769 603.327 142.459 599.68 142.78 599.532C143.101 599.383 144.984 602.665 147.616 606.432C150.248 610.2 152.666 613.09 152.385 613.374Z" fill="#FAFAFA"/>
</g>
<path d="M186.771 603.556C186.959 603.894 183.672 606.149 179.437 608.593C175.203 611.037 171.596 612.752 171.422 612.415C171.248 612.077 174.521 609.822 178.756 607.378C182.991 604.934 186.584 603.218 186.771 603.556Z" fill="#FAFAFA"/>
<path d="M200.171 592.375C199.93 592.658 196.817 590.254 193.985 586.325C191.153 582.395 189.831 578.668 190.178 578.533C190.525 578.398 192.369 581.72 195.108 585.501C197.846 589.282 200.451 592.078 200.171 592.375Z" fill="#FAFAFA"/>
<path d="M223.803 514.604C224.043 514.915 220.503 517.994 215.908 521.464C211.312 524.935 207.411 527.501 207.171 527.19C206.93 526.88 210.484 523.814 215.079 520.343C219.675 516.873 223.576 514.307 223.803 514.604Z" fill="#FAFAFA"/>
<path d="M198.902 512.957C198.514 512.957 198.581 509.216 199.035 504.692C199.489 500.168 200.171 496.59 200.558 496.59C200.946 496.59 200.879 500.33 200.425 504.854C199.97 509.378 199.276 513.024 198.902 512.957Z" fill="#FAFAFA"/>
<g opacity="0.5">
<path opacity="0.5" d="M221.866 481.343C221.652 481.654 217.511 479.075 212.969 475.145C208.427 471.215 205.247 467.502 205.514 467.245C205.782 466.988 209.375 470.202 213.877 474.078C218.379 477.954 222.093 481.019 221.866 481.343Z" fill="#FAFAFA"/>
</g>
<path d="M204.619 441.884C204.913 442.141 201.948 446.111 198.1 450.756C194.253 455.402 190.806 458.953 190.512 458.71C190.218 458.467 193.184 454.484 197.031 449.838C200.879 445.193 204.325 441.641 204.619 441.884Z" fill="#FAFAFA"/>
<g opacity="0.5">
<path opacity="0.5" d="M184.861 437.657C184.647 438.009 181.668 436.456 177.781 435.146C173.893 433.836 170.674 433.201 170.674 432.796C170.674 432.391 174.2 432.418 178.262 433.809C182.323 435.2 185.061 437.333 184.861 437.657Z" fill="#FAFAFA"/>
</g>
<path d="M235.078 455.848C234.717 455.74 235.345 452.458 236.494 448.515C237.643 444.572 238.872 441.466 239.166 441.574C239.46 441.682 238.912 444.963 237.83 448.906C236.748 452.85 235.452 455.969 235.078 455.848Z" fill="#FAFAFA"/>
<path d="M247.088 486.934C246.7 486.934 246.567 483.693 246.794 479.75C247.021 475.807 247.515 472.633 247.889 472.647C248.263 472.66 248.41 475.888 248.183 479.831C247.956 483.774 247.462 486.961 247.088 486.934Z" fill="#FAFAFA"/>
<path d="M266.859 510.256C266.619 510.566 263.693 508.595 260.327 505.853C256.96 503.112 254.422 500.654 254.663 500.357C254.903 500.06 257.829 502.018 261.195 504.76C264.562 507.501 267.06 509.959 266.859 510.256Z" fill="#FAFAFA"/>
<path d="M287.846 477.697C288.1 477.981 285.495 480.736 282.022 483.828C278.548 486.921 275.529 489.23 275.342 488.906C275.155 488.582 277.693 485.867 281.167 482.775C284.64 479.682 287.592 477.4 287.846 477.697Z" fill="#FAFAFA"/>
<g opacity="0.5">
<path opacity="0.5" d="M278.188 462.316C277.974 462.64 274.674 460.804 271.121 457.819C267.567 454.835 265.162 451.891 265.43 451.634C265.697 451.378 268.502 453.808 272.002 456.725C275.502 459.642 278.401 461.992 278.188 462.316Z" fill="#FAFAFA"/>
</g>
<path d="M302.474 434.903C302.782 435.119 301.138 437.914 298.306 440.615C295.474 443.316 292.602 444.801 292.402 444.477C292.201 444.153 294.606 442.208 297.344 439.602C300.083 436.996 302.154 434.633 302.474 434.903Z" fill="#FAFAFA"/>
<g opacity="0.5">
<path opacity="0.5" d="M285.776 432.337C285.776 432.715 281.461 432.404 276.424 431.094C271.388 429.785 267.434 428.029 267.567 427.664C267.701 427.3 271.749 428.461 276.772 429.73C281.795 431 285.829 431.932 285.776 432.337Z" fill="#FAFAFA"/>
</g>
<g opacity="0.5">
<path opacity="0.5" d="M316.796 475.982C316.435 475.901 317.263 470.581 319.173 464.342C321.084 458.103 323.288 453.214 323.635 453.349C323.983 453.484 322.38 458.521 320.509 464.747C318.639 470.972 317.183 476.063 316.796 475.982Z" fill="#FAFAFA"/>
</g>
<path d="M323.676 505.772C323.395 506.029 320.095 502.964 316.301 498.899C312.507 494.834 309.622 491.337 309.956 491.066C310.29 490.796 313.523 493.875 317.317 497.94C321.111 502.005 323.956 505.502 323.676 505.772Z" fill="#FAFAFA"/>
<g opacity="0.5">
<path opacity="0.5" d="M334.323 522.639C333.935 522.639 333.695 518.21 333.788 512.754C333.882 507.298 334.269 502.896 334.657 502.896C335.044 502.896 335.271 507.325 335.178 512.781C335.084 518.237 334.697 522.653 334.323 522.639Z" fill="#FAFAFA"/>
</g>
<path d="M323.515 550.431C323.208 550.647 320.349 547.109 317.704 542.166C315.059 537.224 313.696 532.862 314.03 532.713C314.364 532.565 316.314 536.63 318.933 541.478C321.551 546.325 323.836 550.201 323.515 550.431Z" fill="#FAFAFA"/>
<path d="M351.102 555.508C351.382 555.778 349.525 558.047 346.974 560.572C344.422 563.098 342.124 564.907 341.857 564.624C341.59 564.34 343.447 562.071 345.999 559.546C348.55 557.021 350.835 555.225 351.102 555.508Z" fill="#FAFAFA"/>
<g opacity="0.5">
<path opacity="0.5" d="M283.932 523.841C283.585 523.733 284.814 519.304 287.94 514.685C291.066 510.067 294.74 507.325 294.967 507.622C295.194 507.92 292.108 511.026 289.089 515.495C286.07 519.965 284.306 523.99 283.932 523.841Z" fill="#FAFAFA"/>
</g>
<path d="M206.035 560.883C205.661 560.788 206.316 556.832 207.491 551.916C208.667 547.001 209.949 543.179 210.323 543.274C210.698 543.368 210.03 547.392 208.854 552.254C207.678 557.115 206.396 560.977 206.035 560.883Z" fill="#FAFAFA"/>
<path d="M238.805 564.191C238.591 564.516 235.265 562.692 231.377 560.14C227.49 557.588 224.497 555.238 224.698 554.914C224.898 554.59 228.225 556.4 232.126 558.965C236.026 561.531 239.059 563.867 238.805 564.191Z" fill="#FAFAFA"/>
<path d="M237.202 540.262C236.881 540.478 235.318 538.682 233.702 536.211C232.085 533.74 231.03 531.633 231.364 531.417C231.698 531.201 233.248 532.997 234.864 535.468C236.481 537.939 237.469 540.046 237.202 540.262Z" fill="#FAFAFA"/>
<path d="M251.67 545.718C251.884 546.028 250.481 547.406 248.53 548.797C246.58 550.188 244.817 551.052 244.589 550.741C244.362 550.431 245.778 549.04 247.729 547.649C249.679 546.258 251.443 545.367 251.67 545.718Z" fill="#FAFAFA"/>
<g opacity="0.5">
<path opacity="0.5" d="M213.89 642.799C213.503 642.678 214.131 639.612 214.679 635.831C215.226 632.05 215.534 628.93 215.934 628.93C216.335 628.93 216.629 632.131 216.055 636.034C215.48 639.936 214.238 642.921 213.89 642.799Z" fill="#FAFAFA"/>
</g>
<g opacity="0.5">
<path opacity="0.5" d="M247.181 631.793C246.847 631.982 244.309 628.107 241.517 623.151C238.725 618.195 236.721 613.995 237.055 613.806C237.389 613.617 239.927 617.479 242.719 622.448C245.511 627.418 247.515 631.645 247.181 631.793Z" fill="#FAFAFA"/>
</g>
<g opacity="0.5">
<path opacity="0.5" d="M282.489 616.79C282.796 617.02 279.457 621.962 275.021 627.823C270.586 633.684 266.739 638.235 266.432 638.005C266.124 637.776 269.477 632.833 273.913 626.972C278.348 621.111 282.195 616.547 282.489 616.79Z" fill="#FAFAFA"/>
</g>
<g opacity="0.5">
<path opacity="0.5" d="M292.442 645.459C292.442 645.838 288.074 646.81 282.57 647.607C277.066 648.403 272.55 648.755 272.497 648.376C272.443 647.998 276.852 647.026 282.369 646.216C287.886 645.405 292.388 645.068 292.442 645.459Z" fill="#FAFAFA"/>
</g>
<path d="M293.978 631.01C293.591 630.915 293.978 628.039 294.072 624.501C294.165 620.963 294.072 618.06 294.539 618.006C295.007 617.951 295.635 620.868 295.461 624.555C295.287 628.242 294.339 631.105 293.978 631.01Z" fill="#FAFAFA"/>
<path d="M246.3 647.836C246.166 648.174 242.546 646.972 238.778 644.217C235.011 641.462 232.713 638.41 232.994 638.181C233.274 637.951 235.946 640.449 239.593 643.069C243.24 645.689 246.46 647.458 246.3 647.836Z" fill="#FAFAFA"/>
<path d="M189.644 645.702C189.27 645.608 189.644 642.516 190.632 638.815C191.621 635.115 192.609 632.171 192.983 632.266C193.357 632.36 192.903 635.439 191.981 639.153C191.06 642.867 190.018 645.797 189.644 645.702Z" fill="#FAFAFA"/>
<path d="M183.485 304.128C183.565 304.02 185.088 305.344 187.88 306.829C189.521 307.723 191.232 308.477 192.997 309.084C195.172 309.794 197.408 310.296 199.676 310.583C201.945 310.827 204.231 310.85 206.503 310.651C208.365 310.479 210.207 310.135 212.007 309.624C215.079 308.76 216.843 307.828 216.91 307.95C216.534 308.237 216.126 308.477 215.694 308.666C215.211 308.928 214.711 309.158 214.198 309.354C213.526 309.643 212.839 309.895 212.14 310.111C210.327 310.691 208.461 311.089 206.57 311.299C204.251 311.542 201.915 311.542 199.596 311.299C197.285 311.009 195.011 310.475 192.81 309.706C191.017 309.067 189.29 308.252 187.653 307.275C186.945 306.883 186.317 306.438 185.823 306.073C185.356 305.761 184.909 305.418 184.487 305.047C183.819 304.506 183.445 304.169 183.485 304.128Z" fill="#455A64"/>
<path d="M217.992 319.672C217.524 319.874 217.036 320.024 216.536 320.117C215.587 320.36 214.211 320.684 212.528 320.982C208.013 321.874 203.373 321.901 198.848 321.063C194.286 320.171 190.135 317.8 187.025 314.31C186.114 313.235 185.359 312.035 184.781 310.745C184.546 310.288 184.383 309.796 184.3 309.287C185.146 310.972 186.186 312.549 187.399 313.986C190.513 317.294 194.564 319.544 198.995 320.428C203.445 321.236 207.998 321.277 212.461 320.549C214.184 320.306 215.574 320.063 216.469 319.901C216.966 319.765 217.477 319.688 217.992 319.672Z" fill="#455A64"/>
<path d="M170.42 402.317C170.356 402.26 170.298 402.196 170.246 402.128C170.153 401.993 169.979 401.804 169.792 401.52C169.274 400.696 168.916 399.779 168.737 398.819C168.469 397.033 168.592 395.208 169.097 393.474C169.603 391.741 170.478 390.14 171.662 388.786C173.291 386.932 175.176 385.326 177.26 384.019C179.451 382.56 181.909 381.224 184.327 379.576C186.888 377.938 189.078 375.77 190.752 373.216C191.589 371.86 192.135 370.342 192.356 368.759C192.564 367.119 192.478 365.454 192.102 363.844C191.225 360.655 190.094 357.544 188.722 354.539C187.422 351.671 186.657 348.586 186.464 345.438C186.305 340.074 187.918 334.81 191.046 330.475C193.079 327.535 195.777 325.127 198.915 323.453L200.411 322.724L201.56 322.318C201.871 322.195 202.193 322.1 202.522 322.035C202.231 322.2 201.927 322.34 201.613 322.453L200.505 322.926L199.048 323.696C196.014 325.432 193.414 327.848 191.447 330.759C188.455 335.032 186.93 340.178 187.105 345.411C187.309 348.478 188.07 351.481 189.35 354.269C190.749 357.32 191.897 360.481 192.783 363.722C193.167 365.413 193.253 367.16 193.037 368.881C192.808 370.56 192.23 372.171 191.34 373.607C189.598 376.241 187.321 378.469 184.661 380.143C182.203 381.791 179.731 383.114 177.554 384.546C175.5 385.798 173.638 387.345 172.023 389.137C170.865 390.434 169.994 391.967 169.468 393.632C168.943 395.297 168.776 397.057 168.977 398.792C169.22 400.053 169.711 401.252 170.42 402.317Z" fill="#455A64"/>
<path d="M206.009 402.803C205.734 402.686 205.474 402.536 205.234 402.358C204.538 401.852 203.952 401.209 203.51 400.467C202.822 399.28 202.411 397.95 202.308 396.578C202.166 394.756 202.366 392.923 202.896 391.176C203.978 387.219 207.251 383.614 209.709 379.022C211.048 376.684 211.744 374.027 211.726 371.325C211.59 368.427 210.857 365.589 209.575 362.993C207.037 357.591 203.136 353.243 200.438 348.733C199.112 346.624 198.053 344.355 197.285 341.981C196.638 339.877 196.416 337.664 196.63 335.472C196.837 332.263 198.23 329.251 200.531 327.031C201.175 326.479 201.895 326.024 202.669 325.681C202.933 325.552 203.211 325.452 203.497 325.384C202.489 325.888 201.55 326.524 200.705 327.274C198.56 329.505 197.288 332.446 197.125 335.553C196.947 337.678 197.192 339.818 197.846 341.845C198.608 344.182 199.663 346.411 200.986 348.476C202.321 350.677 203.978 352.878 205.621 355.228C207.375 357.606 208.909 360.142 210.203 362.804C211.539 365.488 212.291 368.431 212.408 371.433C212.412 374.245 211.679 377.008 210.283 379.441C207.719 384.046 204.446 387.544 203.363 391.379C202.833 393.057 202.607 394.818 202.695 396.578C202.769 397.9 203.124 399.189 203.738 400.359C204.316 401.326 205.09 402.159 206.009 402.803Z" fill="#455A64"/>
<path d="M258.724 301.427C258.724 301.427 258.537 301.427 258.216 301.211C257.753 300.958 257.306 300.673 256.88 300.361C255.352 299.164 254.052 297.695 253.046 296.026C251.585 293.56 250.346 290.965 249.346 288.274C248.731 286.789 248.01 285.236 247.262 283.71C246.424 282.133 245.44 280.641 244.323 279.254C240.334 274.359 234.936 270.843 228.879 269.193C226.359 268.579 223.787 268.209 221.198 268.086C221.891 267.968 222.594 267.928 223.295 267.964C225.217 268.013 227.128 268.262 229 268.707C235.227 270.253 240.79 273.797 244.857 278.808C246.011 280.232 247.026 281.765 247.889 283.386C248.704 284.952 249.346 286.532 249.947 288.031C250.917 290.701 252.096 293.289 253.474 295.769C254.43 297.414 255.644 298.892 257.067 300.145C258.096 301.022 258.764 301.373 258.724 301.427Z" fill="#455A64"/>
<path d="M277.36 301.319C277.116 301.329 276.873 301.301 276.638 301.238C275.954 301.131 275.283 300.955 274.634 300.712C272.232 299.813 270.056 298.388 268.262 296.539C265.627 293.803 263.403 290.691 261.663 287.302C259.565 283.588 257.535 279.321 254.395 275.607C251.404 272.137 247.454 269.649 243.053 268.464C239.457 267.498 235.754 266.994 232.032 266.965C228.839 266.897 226.261 266.965 224.471 267.1L222.414 267.181C222.174 267.214 221.932 267.214 221.692 267.181C221.921 267.107 222.16 267.066 222.4 267.059L224.458 266.843C226.234 266.695 228.826 266.479 232.032 266.492C235.806 266.441 239.571 266.895 243.227 267.843C247.767 269.029 251.844 271.581 254.916 275.162C258.149 278.984 260.166 283.264 262.21 287.005C263.904 290.356 266.059 293.447 268.609 296.188C270.329 298.033 272.414 299.492 274.728 300.469C276.384 301.117 277.373 301.238 277.36 301.319Z" fill="#455A64"/>
<path d="M308.9 388.961C308.834 388.961 309.248 388.003 309.689 386.261C310.329 383.776 310.599 381.209 310.49 378.644C310.363 374.839 309.395 371.111 307.658 367.733C306.622 365.751 305.338 363.913 303.837 362.264C302.288 360.522 300.511 358.874 298.734 357.146C296.94 355.484 295.283 353.677 293.778 351.744C292.395 349.932 291.2 347.982 290.211 345.924C288.547 342.43 287.481 338.677 287.058 334.823C286.764 332.233 286.791 329.615 287.138 327.031C287.215 326.331 287.335 325.636 287.499 324.952C287.534 324.705 287.602 324.465 287.699 324.236C287.766 324.236 287.553 325.249 287.406 327.072C287.163 329.63 287.208 332.208 287.539 334.756C288.039 338.536 289.135 342.211 290.785 345.64C291.772 347.648 292.954 349.553 294.312 351.325C295.807 353.209 297.441 354.974 299.202 356.605C300.992 358.334 302.769 359.995 304.345 361.778C305.876 363.474 307.178 365.368 308.219 367.409C309.972 370.879 310.918 374.708 310.984 378.604C311.048 381.213 310.701 383.816 309.956 386.315C309.761 386.994 309.516 387.658 309.221 388.3C309.148 388.535 309.04 388.758 308.9 388.961Z" fill="#455A64"/>
<path d="M162.552 300.253C162.548 299.797 162.607 299.342 162.725 298.902C162.995 297.728 163.422 296.597 163.994 295.54C164.949 293.745 166.269 292.176 167.866 290.933C169.464 289.691 171.303 288.804 173.263 288.331C175.224 287.858 177.261 287.809 179.241 288.188C181.222 288.567 183.101 289.365 184.754 290.53C185.755 291.202 186.655 292.016 187.426 292.947C187.735 293.271 187.987 293.646 188.174 294.054C187.045 292.899 185.805 291.858 184.474 290.948C182.858 289.886 181.045 289.166 179.145 288.835C177.245 288.503 175.299 288.566 173.424 289.02C171.549 289.474 169.785 290.308 168.24 291.473C166.695 292.638 165.4 294.109 164.435 295.796C163.666 297.217 163.036 298.709 162.552 300.253Z" fill="#455A64"/>
<path d="M175.496 305.938C175.487 304.904 175.613 303.873 175.87 302.872C176.281 300.367 177.378 298.028 179.036 296.12C179.945 295.201 181.083 294.547 182.33 294.228C183.576 293.909 184.885 293.938 186.117 294.311C186.857 294.582 187.512 295.048 188.014 295.661C188.348 296.093 188.441 296.39 188.414 296.404C187.734 295.69 186.896 295.149 185.97 294.824C184.831 294.55 183.641 294.574 182.514 294.896C181.387 295.217 180.36 295.825 179.531 296.661C177.966 298.492 176.874 300.686 176.351 303.048C176.154 304.036 175.868 305.003 175.496 305.938Z" fill="#455A64"/>
<path d="M192.476 286.154C191.136 288.522 189.962 290.981 188.963 293.514C188.19 296.123 187.583 298.78 187.146 301.468C186.85 295.849 188.772 290.342 192.489 286.154H192.476Z" fill="#1C6056"/>
<path d="M406.194 319.077C406.194 319.908 406.438 320.72 406.895 321.411C407.351 322.101 408 322.64 408.759 322.958C409.518 323.275 410.354 323.359 411.16 323.197C411.965 323.035 412.706 322.635 413.287 322.047C413.868 321.46 414.264 320.711 414.424 319.897C414.584 319.082 414.502 318.238 414.187 317.47C413.873 316.703 413.34 316.047 412.657 315.585C411.974 315.124 411.171 314.878 410.349 314.878C409.803 314.878 409.263 314.986 408.759 315.197C408.255 315.408 407.797 315.718 407.411 316.108C407.025 316.498 406.719 316.961 406.511 317.47C406.302 317.98 406.194 318.526 406.194 319.077Z" fill="#455A64"/>
<path d="M393.704 323.277C395.998 323.277 397.858 321.397 397.858 319.077C397.858 316.758 395.998 314.878 393.704 314.878C391.409 314.878 389.549 316.758 389.549 319.077C389.549 321.397 391.409 323.277 393.704 323.277Z" fill="#455A64"/>
<path d="M372.957 316.971C372.547 317.69 372.357 318.517 372.411 319.345C372.465 320.174 372.761 320.968 373.262 321.626C373.762 322.285 374.444 322.779 375.222 323.046C376 323.312 376.839 323.34 377.633 323.124C378.426 322.909 379.139 322.461 379.68 321.837C380.222 321.212 380.568 320.439 380.676 319.616C380.783 318.793 380.646 317.956 380.283 317.211C379.919 316.466 379.346 315.847 378.634 315.431C378.162 315.155 377.64 314.976 377.099 314.904C376.557 314.832 376.007 314.869 375.48 315.012C374.953 315.155 374.459 315.401 374.026 315.737C373.593 316.074 373.229 316.493 372.957 316.971Z" fill="#455A64"/>
<path d="M393.45 269.99C393.17 269.957 392.888 269.957 392.608 269.99L390.137 270.057C389.602 270.057 388.988 270.057 388.32 270.138L386.142 270.449L383.604 270.813L380.758 271.529C375.894 272.778 371.265 274.822 367.052 277.579C360.791 281.607 355.524 287.029 351.655 293.43C347.786 299.832 345.417 307.043 344.729 314.513C344.536 316.758 344.491 319.014 344.595 321.265C344.676 322.413 344.595 323.561 344.809 324.709L345.33 328.179C346.202 332.951 347.759 337.569 349.952 341.886C352.306 346.395 355.289 350.538 358.809 354.188C362.563 357.924 366.867 361.049 371.567 363.452C376.423 365.96 381.678 367.583 387.091 368.246C388.467 368.456 389.854 368.577 391.245 368.611C392.638 368.685 394.034 368.685 395.427 368.611C398.253 368.497 401.064 368.14 403.83 367.544C409.765 366.26 415.413 363.874 420.488 360.508H419.981L437 367.422L438.016 367.827L437.722 366.774C436.012 360.454 434.328 354.31 432.725 348.368L432.632 348.827C437.256 342.64 440.369 335.435 441.716 327.801C442.369 324.24 442.594 320.613 442.384 316.998C442.349 315.263 442.184 313.534 441.89 311.826C441.769 310.975 441.636 310.138 441.516 309.3C441.395 308.463 441.101 307.68 440.914 306.87C438.065 295.557 431.333 285.635 421.918 278.875C418.443 276.351 414.64 274.324 410.616 272.853L408.078 271.934L405.66 271.313L403.442 270.759C402.734 270.611 402.106 270.543 401.412 270.449C400.076 270.273 398.994 270.057 398.005 270.003L395.494 269.922H393.971C393.623 269.922 393.45 269.922 393.45 269.922H393.971L395.494 270.044L397.978 270.206C398.954 270.287 400.076 270.543 401.358 270.732C410.6 272.34 419.18 276.626 426.058 283.07C432.935 289.514 437.813 297.838 440.1 307.032C440.287 307.828 440.527 308.612 440.674 309.422C440.821 310.232 440.914 311.069 441.048 311.893C441.317 313.577 441.464 315.279 441.489 316.984C441.684 320.515 441.456 324.056 440.808 327.531C439.454 335.042 436.369 342.124 431.804 348.206L431.657 348.408L431.723 348.665C433.326 354.607 434.979 360.742 436.68 367.071L437.401 366.423L420.395 359.495L420.128 359.387L419.874 359.549C414.9 362.866 409.36 365.22 403.536 366.49C400.836 367.075 398.092 367.428 395.333 367.544C393.966 367.598 392.596 367.571 391.232 367.463C389.89 367.436 388.552 367.324 387.224 367.125C381.924 366.467 376.779 364.877 372.022 362.426C362.911 357.87 355.485 350.482 350.834 341.346C348.654 337.133 347.096 332.619 346.212 327.95C346.038 326.802 345.865 325.681 345.704 324.547C345.544 323.412 345.557 322.291 345.464 321.17C345.359 318.969 345.394 316.763 345.571 314.567C346.222 307.22 348.518 300.119 352.286 293.802C356.054 287.484 361.195 282.117 367.319 278.106C371.477 275.325 376.051 273.241 380.865 271.934L383.671 271.178L386.196 270.759L388.346 270.395C389.014 270.395 389.616 270.314 390.15 270.26L392.608 270.084C392.891 270.076 393.172 270.045 393.45 269.99Z" fill="#455A64"/>
</svg>
