<svg width="774" height="774" viewBox="0 0 774 774" fill="none" xmlns="http://www.w3.org/2000/svg">
<circle cx="387" cy="387" r="387" fill="#F2CCC7"/>
<path d="M560.923 525.911C553.91 522.286 545.637 521.811 537.84 523.106C533.656 523.796 529.294 525.044 526.442 528.193C523.589 531.343 523.054 536.87 526.323 539.58C528.272 541.185 530.982 541.434 533.514 541.399C539.611 541.327 546.386 540.21 551.259 543.93C554.041 546.022 555.895 549.505 559.223 550.539C562.551 551.573 566.141 549.624 567.864 546.688C569.453 543.633 569.806 540.084 568.851 536.775C568.456 534.476 567.535 532.298 566.16 530.414C564.785 528.529 562.992 526.988 560.923 525.911Z" fill="#EBEBEB"/>
<path d="M577.064 494.853C572.773 500.986 564.429 498.954 560.554 495.21C556.679 491.466 555.051 486.046 553.565 480.863C550.166 469.049 546.731 456.652 549.262 444.611C549.868 440.964 551.468 437.554 553.886 434.758C556.418 432.083 560.305 430.491 563.858 431.43C568.066 432.547 570.681 436.671 572.571 440.582C578.117 452.148 581.02 464.803 581.069 477.63C581.069 483.573 580.38 489.873 577.016 494.806" fill="#EBEBEB"/>
<path d="M588.807 503.649C584.148 498.122 583.256 490.051 585.336 483.11C587.416 476.168 592.1 470.285 597.496 465.471C603.855 459.832 611.251 455.485 619.271 452.67C622.377 451.415 625.718 450.847 629.065 451.006C630.737 451.105 632.361 451.61 633.794 452.478C635.227 453.346 636.427 454.55 637.29 455.986C639.584 460.348 637.385 465.649 635.008 469.976C630.835 477.603 626.066 484.888 620.745 491.763C616.466 497.29 611.545 502.746 605.02 505.242C598.494 507.738 591.695 507.44 588.237 502.864" fill="#EBEBEB"/>
<path d="M577.301 587.362C577.088 586.445 576.96 585.509 576.921 584.568C576.719 582.536 576.469 579.992 576.172 576.961C575.799 573.218 575.227 569.496 574.461 565.812C573.466 561.321 572.111 556.916 570.408 552.643C568.741 548.384 566.48 544.382 563.692 540.757C561.422 537.798 558.518 535.386 555.194 533.697C552.951 532.576 550.543 531.822 548.062 531.462C547.123 531.431 546.19 531.296 545.281 531.058C546.221 530.957 547.169 530.957 548.11 531.058C550.694 531.251 553.222 531.907 555.574 532.995C559.074 534.646 562.142 537.087 564.536 540.127C567.446 543.809 569.793 547.903 571.501 552.274C573.223 556.586 574.563 561.041 575.507 565.587C576.224 569.318 576.72 573.088 576.992 576.878C577.23 580.111 577.325 582.726 577.361 584.533C577.451 585.475 577.431 586.424 577.301 587.362Z" fill="#E0E0E0"/>
<path d="M576.779 581.502C576.708 581.074 576.684 580.639 576.707 580.206C576.707 579.244 576.707 578.019 576.707 576.51C576.707 573.301 576.707 568.665 576.541 562.924C576.256 551.454 575.269 539.152 573.367 521.715C571.561 505.36 569.136 486.307 566.569 473.934C566.022 471.117 565.475 468.585 564.952 466.363C564.429 464.14 564.037 462.226 563.621 460.669C563.205 459.112 562.991 458.019 562.765 457.103C562.632 456.692 562.556 456.264 562.539 455.832C562.732 456.209 562.88 456.608 562.979 457.02L564.061 460.586C564.536 462.119 565.023 464.021 565.582 466.244C566.141 468.466 566.771 470.998 567.365 473.791C570.533 488.431 572.914 503.231 574.496 518.126C576.41 535.563 577.266 551.407 577.337 562.936C577.409 568.689 577.337 573.336 577.135 576.545C577.052 578.055 576.969 579.279 576.909 580.242C576.922 580.666 576.878 581.09 576.779 581.502Z" fill="#E0E0E0"/>
<path d="M576.707 550.884C576.601 549.598 576.601 548.306 576.707 547.021C576.85 544.537 577.195 540.947 577.896 536.561C578.737 531.417 579.872 526.326 581.295 521.311C582.955 515.143 585.085 509.111 587.666 503.268C592.097 492.478 598.453 482.583 606.422 474.065C607.798 472.607 609.267 471.242 610.82 469.976C611.497 469.405 612.092 468.787 612.698 468.383L614.409 467.195C615.433 466.408 616.523 465.713 617.666 465.114C617.845 465.364 613.054 468.181 606.969 474.623C599.274 483.23 593.111 493.091 588.748 503.78C586.214 509.572 584.074 515.528 582.341 521.608C580.665 527.219 579.56 532.365 578.716 536.704C577.872 541.042 577.456 544.608 577.183 547.068C577.113 548.35 576.954 549.624 576.707 550.884Z" fill="#E0E0E0"/>
<path d="M606.303 604.894L603.237 646.934H549.227L546.16 604.894H606.303Z" fill="#E0E0E0"/>
<path d="M611.521 588.336H539.718V604.905H611.521V588.336Z" fill="#E0E0E0"/>
<path d="M611.521 645.33V649.918H608.146H540.907V645.33H611.521Z" fill="#EBEBEB"/>
<path d="M604.841 658L608.146 649.918H543.474L547.337 658H604.841Z" fill="#E0E0E0"/>
<path d="M547.159 618.634C547.231 618.774 547.319 618.905 547.42 619.026L548.228 620.096L551.366 624.125L551.509 624.303L551.64 624.113L559.377 613.416H558.926L566.533 624.184L566.782 624.529L567.044 624.208L576.065 613.511H575.542C575.709 613.701 575.875 613.915 576.042 614.129C578.847 617.695 581.557 621.035 584.112 624.256L584.386 624.589L584.635 624.232C587.369 620.357 589.936 616.744 592.242 613.463H591.802C595.558 617.73 598.732 621.367 601.18 624.161L601.347 624.351L601.466 624.137C602.654 622.057 603.688 620.405 604.413 619.204L605.162 617.885C605.255 617.74 605.331 617.584 605.388 617.421C605.267 617.546 605.163 617.686 605.079 617.837L604.247 619.097L601.157 623.947H601.454L592.23 613.13L591.993 612.857L591.791 613.154L584.1 623.852H584.623L576.565 613.713L576.077 613.095L575.816 612.774L575.554 613.083L566.557 623.828H567.056L559.377 613.13L559.152 612.821L558.926 613.13L551.366 623.935H551.64L548.359 620.012L547.491 619.002C547.399 618.864 547.287 618.74 547.159 618.634Z" fill="#F5F5F5"/>
<path d="M545.411 604.62C545.411 604.81 558.938 604.953 575.626 604.953C592.313 604.953 605.852 604.81 605.852 604.62C605.852 604.43 592.325 604.287 575.626 604.287C558.926 604.287 545.411 604.442 545.411 604.62Z" fill="#F5F5F5"/>
<path d="M542.678 650.369C542.678 650.559 557.392 650.714 575.53 650.714C593.668 650.714 608.371 650.559 608.371 650.369C608.371 650.179 593.668 650.036 575.53 650.036C557.392 650.036 542.678 650.191 542.678 650.369Z" fill="#F5F5F5"/>
<path d="M185.1 236.001H128V349.179H185.1V236.001Z" fill="#EBEBEB"/>
<path d="M248.987 236.001H187.299V349.179H248.987V236.001Z" fill="#EBEBEB"/>
<path d="M248.987 357.083H187.299V466.434H248.987V357.083Z" fill="#EBEBEB"/>
<path d="M256.891 234.039H321.86V133.639H324.059V234.039H376.928V131.416H256.891V234.039Z" fill="#EBEBEB"/>
<path d="M376.928 236.001H324.059V349.179H376.928V236.001Z" fill="#EBEBEB"/>
<path d="M376.928 357.083H324.059V466.434H376.928V357.083Z" fill="#EBEBEB"/>
<path d="M185.1 357.083H128V466.434H185.1V357.083Z" fill="#EBEBEB"/>
<path d="M321.86 357.083H256.891V466.434H321.86V357.083Z" fill="#EBEBEB"/>
<path d="M185.1 468.395H128V566.942H185.1V468.395Z" fill="#EBEBEB"/>
<path d="M376.928 468.395H324.059V566.942H376.928V468.395Z" fill="#EBEBEB"/>
<path d="M185.1 234.039V133.639H187.299V234.039H248.987V131.416H128V234.039H185.1Z" fill="#EBEBEB"/>
<path d="M321.86 468.395H256.891V566.942H321.86V468.395Z" fill="#EBEBEB"/>
<path d="M248.987 468.395H187.299V566.942H248.987V468.395Z" fill="#EBEBEB"/>
<path d="M321.86 236.001H256.891V349.179H321.86V236.001Z" fill="#EBEBEB"/>
<path d="M611.723 136.479H478.066V275.807H611.723V136.479Z" fill="#E0E0E0"/>
<path d="M602.666 136.479H469.008V275.807H602.666V136.479Z" fill="#EBEBEB"/>
<path d="M584.706 155.2H486.98V257.074H584.706V155.2Z" fill="white"/>
<path d="M486.98 257.74C486.251 258.737 485.431 259.664 484.531 260.509C482.962 262.15 480.764 264.372 478.315 266.797C475.867 269.222 473.561 271.373 471.932 272.918C471.088 273.803 470.156 274.599 469.151 275.296C469.845 274.296 470.642 273.372 471.528 272.538C473.097 270.898 475.296 268.663 477.768 266.238C480.241 263.814 482.523 261.639 484.151 260.105C485.004 259.215 485.952 258.421 486.98 257.74Z" fill="#E0E0E0"/>
<path d="M584.706 257.502C585.706 258.201 586.634 258.997 587.476 259.879C589.116 261.448 591.339 263.647 593.752 266.108C596.165 268.568 598.34 270.862 599.885 272.479C600.764 273.332 601.56 274.268 602.262 275.272C601.26 274.576 600.332 273.78 599.493 272.895C597.864 271.326 595.63 269.115 593.205 266.654C590.78 264.194 588.605 261.9 587.072 260.272C586.191 259.431 585.399 258.503 584.706 257.502Z" fill="#E0E0E0"/>
<path d="M584.433 155.521C585.162 154.524 585.982 153.597 586.882 152.751C588.451 151.111 590.649 148.888 593.11 146.475C595.57 144.063 597.864 141.887 599.481 140.342C600.331 139.46 601.267 138.664 602.274 137.965C601.577 138.962 600.78 139.886 599.897 140.723C598.328 142.363 596.129 144.597 593.657 147.022C591.184 149.447 588.902 151.622 587.274 153.155C586.418 154.047 585.465 154.84 584.433 155.521Z" fill="#E0E0E0"/>
<path d="M486.73 155.723C485.728 155.005 484.8 154.189 483.961 153.286C482.333 151.717 480.11 149.518 477.685 147.058C475.26 144.597 473.097 142.303 471.552 140.687C470.67 139.836 469.874 138.901 469.175 137.894C470.171 138.592 471.095 139.388 471.932 140.271C473.573 141.84 475.795 144.051 478.22 146.511C480.645 148.972 482.82 151.265 484.353 152.894C485.241 153.752 486.038 154.7 486.73 155.723Z" fill="#E0E0E0"/>
<path d="M584.433 257.074C584.433 257.074 584.433 256.896 584.433 256.587C584.433 256.278 584.433 255.779 584.433 255.161C584.433 253.901 584.433 252.059 584.433 249.669C584.433 244.915 584.433 237.783 584.35 228.917C584.35 211.088 584.255 185.652 584.184 155.224L584.504 155.544H487.04L487.408 155.176C487.408 192.569 487.408 227.55 487.408 257.051L487.099 256.73L557.678 256.896L577.492 256.979H582.733H584.088H584.552H584.124H582.805H577.622L557.88 257.063L487.099 257.217H486.778V256.908C486.778 227.407 486.778 192.427 486.778 155.033V154.665H487.158H584.623H584.944V154.986C584.885 185.521 584.825 211.016 584.79 228.905C584.79 237.795 584.718 244.784 584.695 249.586C584.695 251.963 584.695 253.77 584.695 255.018C584.695 255.612 584.695 256.076 584.695 256.409C584.695 256.742 584.433 257.074 584.433 257.074Z" fill="#E0E0E0"/>
<path d="M512.773 197.763C512.773 197.763 510.681 222.985 537.995 222.985C537.995 209.519 526.893 198.893 512.773 197.763Z" fill="#EBEBEB"/>
<path d="M562.801 197.775C562.801 197.775 537.579 195.683 537.579 222.997C550.986 222.997 561.612 211.896 562.801 197.775Z" fill="#EBEBEB"/>
<path d="M536.782 183.976C536.782 183.976 516.172 202.47 537.911 222.985C548.014 212.276 547.159 195.481 536.782 183.976Z" fill="#E0E0E0"/>
<path d="M365.776 347.418C370.26 349.329 371.428 352.034 371.226 354.571C371.023 357.108 369.651 359.631 369.806 362.163C370.152 367.415 376.961 372.253 381.636 377.206C386.31 382.16 388.552 388.037 380.598 392.373C374.636 392.591 368.59 392.817 362.711 392.373C356.832 391.929 351.108 390.716 348.401 388.735C346.148 387.1 346.171 385.181 346.267 383.337C346.672 374.372 347.07 365.408 347.459 356.446" fill="#263238"/>
<path d="M218.976 262.022C224.403 267.15 218.369 273.929 210.848 278.016C203.326 282.103 193.829 285.453 190.127 291.092C183.938 300.505 196.863 311.725 189.925 320.948C186.152 325.97 176.952 329.54 176.107 335.015C175.667 337.848 177.666 340.625 178.095 343.472C179.106 350.244 171.347 356.222 165.17 361.889C158.993 367.555 154.185 375.304 160.671 380.907L245.897 379.568C248.009 379.649 250.12 379.405 252.027 378.86C255.883 377.479 256.026 374.242 255.704 371.571L247.528 303.247" fill="#263238"/>
<path d="M370.162 341.005C368.276 335.144 364.1 329.828 362.51 323.892C360.476 316.405 362.752 308.629 364.059 301.014C365.366 293.398 365.474 285.045 359.883 278.777C356.556 275.044 351.49 272.413 348.473 268.509C344.593 263.461 344.741 257.172 343.232 251.396C341.519 245.174 337.838 239.4 332.538 234.619C327.237 229.838 320.491 226.207 312.935 224.068L312.746 378.868L348.567 388.163C355.141 381.232 361.756 374.259 366.228 366.333C370.701 358.407 372.87 349.402 370.162 341.005Z" fill="#263238"/>
<path d="M320.915 215.969C316.826 212.004 311.801 208.284 305.283 206.037C298.765 203.791 290.576 203.15 283.952 205.273C277.564 207.351 273.511 211.645 267.266 213.899C260.842 216.191 253.044 216.068 245.934 217.26C238.39 218.625 231.687 221.463 226.746 225.384C221.806 229.305 218.871 234.116 218.345 239.156C217.788 246.276 222.078 253.87 217.302 260.302C212.68 266.513 200.391 270.234 199.609 277.11C198.886 283.512 208.876 288.569 209.848 294.941C211.033 303.077 197.523 309.769 198.364 317.921C199.134 325.477 211.862 330.649 213.379 338.151C214.73 344.828 206.79 351.727 210.642 358.014C212.716 361.399 217.752 363.576 221.995 365.975C226.238 368.374 230.291 371.75 229.106 375.326L349.049 358.335C341.666 343.308 334.247 327.196 341.073 312.061C343.538 306.599 347.781 301.526 350.305 296.064C353.22 289.738 353.742 283.076 353.398 276.445C352.746 263.954 349.037 251.601 344.095 239.515C340.327 230.286 334.342 220.079 320.642 216.443" fill="#263238"/>
<path d="M351.202 367.511C351.972 366.373 352.533 365.154 352.867 363.892C353.538 360.397 353.048 356.825 351.442 353.524C350.544 351.413 349.323 349.17 348.137 346.7C346.759 344.096 345.899 341.339 345.587 338.529C345.382 335.414 345.827 332.293 346.904 329.292C347.922 326.153 349.37 323.015 350.736 319.791C352.154 316.681 353.173 313.466 353.777 310.196C354.292 307.155 353.907 304.062 352.651 301.157C351.354 298.557 349.814 296.037 348.041 293.617C347.259 292.502 346.556 291.353 345.934 290.177C345.383 289.017 345 287.886 344.629 286.803C343.24 282.457 342.438 278.895 341.755 276.435C341.432 275.209 341.156 274.267 340.953 273.607C340.857 273.305 340.773 273.07 340.713 272.881C340.681 272.799 340.66 272.713 340.654 272.627C340.706 272.701 340.746 272.78 340.773 272.863C340.845 273.023 340.965 273.258 341.073 273.579C341.312 274.21 341.635 275.143 341.995 276.406C342.749 278.829 343.623 282.391 345.048 286.699C345.431 287.773 345.838 288.895 346.389 290.026C347.011 291.187 347.714 292.32 348.496 293.419C350.301 295.835 351.871 298.356 353.19 300.959C354.499 303.926 354.909 307.092 354.388 310.206C353.794 313.509 352.771 316.756 351.334 319.895C349.969 323.137 348.52 326.257 347.503 329.32C346.442 332.276 345.993 335.347 346.174 338.415C346.467 341.184 347.294 343.902 348.628 346.474C349.826 348.934 351.023 351.187 351.873 353.336C353.439 356.685 353.852 360.301 353.07 363.817C352.82 364.761 352.418 365.676 351.873 366.541C351.681 366.833 351.502 367.04 351.394 367.191C351.286 367.342 351.202 367.521 351.202 367.511Z" fill="#455A64"/>
<path d="M245.588 380.784L236.21 391.291C236.21 391.291 200.944 403.652 197.188 405.911C193.432 408.169 221.198 560.024 221.198 560.024C221.198 560.024 185.183 602.897 182.937 618.265C180.69 633.634 178.183 654.161 178.183 654.161L391.643 653.745L379.127 566.395L382.693 505.574L361.429 396.521L331.131 389.044L315.002 376.659L245.588 380.784Z" fill="#1C6056"/>
<path d="M178.183 654.197C178.183 653.994 180.667 633.515 182.937 618.313C183.46 614.747 185.79 609.553 189.878 602.707C193.147 597.239 197.533 590.737 202.953 583.404C211.998 571.078 220.901 560.452 221.234 560.06C221.067 559.156 214.173 521.406 207.814 483.859C199.233 433.094 195.667 406.873 197.236 405.922C200.932 403.7 235.58 391.54 236.257 391.303L245.635 380.795L315.014 376.6L331.143 388.973L361.452 396.461L382.704 505.503L379.139 566.335L391.655 653.709L178.183 654.197ZM245.6 380.819L236.222 391.315C235.865 391.445 200.909 403.712 197.212 405.934C195.679 406.861 199.351 433.783 207.814 483.811C214.221 521.62 221.162 559.644 221.234 560.024C221.15 560.131 212.129 570.888 202.953 583.38C197.557 590.714 193.171 597.215 189.878 602.683C185.79 609.505 183.46 614.759 182.949 618.253C180.774 633.182 178.361 653.174 178.194 654.113L391.643 653.709L379.139 566.395L382.704 505.574L361.452 396.544L331.167 389.068L315.038 376.695L245.6 380.819Z" fill="#263238"/>
<path d="M197.188 405.91C197.188 405.91 181.998 413.446 175.58 421.826C169.161 430.205 158.678 471.901 156.205 485.214C153.733 498.526 146.471 514.073 147.98 520.491L149.953 527.397C149.953 527.397 148.468 555.02 152.414 562.425C156.36 569.83 161.293 568.368 161.293 568.368C161.293 568.368 161.435 587.16 172.347 589.584C192.672 594.089 215.956 590.666 222.874 579.814C229.791 568.962 229.352 564.398 229.352 564.398L219.986 524.437L214.708 513.645L209.621 482.991L197.188 405.91Z" fill="#1C6056"/>
<path d="M361.428 396.521C361.428 396.521 370.771 399.124 384.998 416.513C399.226 433.902 433.612 476.989 433.612 476.989C433.612 476.989 453.343 468.193 459.761 469.18C463.556 462.793 469.121 457.645 475.783 454.358C485.577 449.401 495.99 453.276 495.99 453.276L509.409 483.49C511.643 489.148 514.948 501.402 511.786 506.608C507.614 513.514 498.711 524.877 485.898 519.41C485.898 519.41 444.131 557.278 429.381 561.831C410.969 567.524 381.837 558.075 374.099 516.093C366.361 474.112 361.428 396.521 361.428 396.521Z" fill="#1C6056"/>
<path d="M312.565 597.679C312.553 597.536 312.553 597.393 312.565 597.251C312.565 596.93 312.565 596.514 312.47 595.979C312.47 594.79 312.316 593.174 312.197 591.07C311.947 586.779 311.579 580.622 311.139 573.039C310.188 557.813 308.619 536.799 306.04 513.681C304.744 502.116 303.294 491.097 301.844 481.149C300.394 471.2 298.897 462.214 297.53 454.714C296.888 450.958 296.21 447.583 295.652 444.599C295.093 441.616 294.582 439.06 294.154 436.98L293.191 432.167C293.096 431.632 293.013 431.216 292.954 430.907C292.92 430.762 292.9 430.615 292.894 430.467C292.946 430.606 292.986 430.749 293.013 430.895C293.096 431.204 293.191 431.608 293.31 432.083C293.56 433.272 293.928 434.829 294.38 436.838C294.832 438.847 295.402 441.461 295.984 444.433C296.567 447.404 297.28 450.792 297.958 454.548C299.384 462.036 300.881 470.998 302.403 480.97C303.924 490.943 305.351 501.949 306.658 513.514C309.237 536.656 310.735 557.682 311.579 572.944C311.995 580.563 312.28 586.72 312.435 590.987C312.506 593.091 312.565 594.743 312.601 595.896C312.601 596.431 312.601 596.859 312.601 597.18C312.618 597.347 312.606 597.516 312.565 597.679Z" fill="#263238"/>
<g opacity="0.3">
<path opacity="0.3" d="M196.594 591.546C201.194 594.986 206.816 596.783 212.559 596.65C218.302 596.516 223.834 594.459 228.27 590.809C234.213 585.614 237.41 577.936 242.046 571.494C251.709 558.087 267.446 550.575 279.617 539.402C287.01 532.627 293.346 524.295 302.391 519.944C312.066 515.309 323.298 515.951 334.031 515.713C344.764 515.475 356.448 513.764 363.746 505.943L306.694 507.726C299.562 507.952 292.157 508.225 285.644 511.208C276.527 515.368 270.537 524.105 263.987 531.7C256.579 540.296 247.987 547.796 238.468 553.974C234.748 556.351 230.695 558.812 228.71 562.793C227.521 565.266 227.2 568.083 226.487 570.757C223.147 583.273 208.836 591.7 196.273 588.586" fill="black"/>
</g>
<path d="M229.364 566.181C229.391 566.374 229.391 566.57 229.364 566.763C229.349 567.312 229.277 567.858 229.15 568.392C228.661 570.358 227.918 572.252 226.939 574.026C225.51 576.668 223.744 579.113 221.685 581.3C219.188 584.033 216.086 586.146 212.628 587.469C209.173 588.728 205.583 589.582 201.931 590.012C198.579 590.464 195.548 590.654 193.004 590.749C190.461 590.844 188.404 590.856 186.99 590.832H185.35C185.16 590.853 184.969 590.853 184.779 590.832C185.507 590.726 186.243 590.678 186.978 590.69C188.404 590.63 190.461 590.559 192.992 590.416C195.524 590.274 198.531 590.024 201.848 589.549C205.442 589.085 208.974 588.224 212.378 586.981C215.753 585.703 218.79 583.671 221.257 581.038C223.303 578.887 225.075 576.492 226.535 573.907C227.537 572.183 228.334 570.348 228.912 568.439C229.34 566.977 229.292 566.181 229.364 566.181Z" fill="#263238"/>
<path d="M207.101 464.116C207.164 464.304 207.196 464.5 207.196 464.698C207.196 465.138 207.268 465.685 207.327 466.351C207.422 467.777 207.565 469.857 207.802 472.412C208.218 477.535 209.11 484.572 210.037 492.369C210.928 499.798 211.392 506.632 211.511 511.612L211.356 511.41C212.597 511.775 213.772 512.332 214.839 513.063C215.645 513.635 216.291 514.405 216.717 515.297C217.081 516.036 217.26 516.851 217.24 517.674C217.075 516.881 216.824 516.108 216.491 515.368C216.05 514.541 215.409 513.838 214.625 513.324C213.572 512.646 212.422 512.133 211.214 511.803H211.071V511.648C210.845 506.632 210.322 499.869 209.443 492.452C208.516 484.667 207.672 477.607 207.374 472.46C207.196 469.893 207.125 467.813 207.101 466.374C207.101 465.709 207.101 465.186 207.101 464.71C207.085 464.513 207.085 464.314 207.101 464.116Z" fill="#263238"/>
<path d="M380.161 549.16C380.145 549.05 380.145 548.938 380.161 548.827C380.161 548.566 380.161 548.245 380.232 547.841C380.315 546.938 380.434 545.666 380.577 544.061C380.719 542.457 380.945 540.424 381.088 538.118C381.23 535.812 381.516 533.138 381.611 530.19C381.706 527.242 381.944 524.033 381.956 520.574C381.956 518.851 382.027 517.009 382.015 515.214L381.932 509.544C381.722 501.112 381.063 492.697 379.959 484.334C378.784 475.986 377.149 467.708 375.062 459.54C374.551 457.662 374.051 455.832 373.576 454.049C373.1 452.266 372.518 450.578 372.019 448.926C371.044 445.61 369.939 442.579 368.976 439.797C368.512 438.407 368.025 437.087 367.538 435.863L366.195 432.369C365.375 430.17 364.578 428.327 363.936 426.806C363.295 425.285 362.843 424.144 362.486 423.312L362.13 422.384C362.076 422.284 362.04 422.176 362.023 422.064C362.087 422.157 362.143 422.257 362.189 422.361C362.296 422.598 362.427 422.884 362.605 423.252C362.974 424.084 363.497 425.249 364.162 426.711C364.828 428.173 365.672 430.051 366.539 432.238C366.967 433.32 367.431 434.484 367.93 435.72C368.429 436.957 368.929 438.252 369.416 439.655C370.402 442.424 371.532 445.443 372.53 448.771C373.041 450.423 373.623 452.123 374.123 453.906C374.622 455.689 375.121 457.472 375.632 459.397C377.759 467.58 379.414 475.878 380.589 484.251C381.699 492.632 382.346 501.068 382.526 509.52C382.526 511.47 382.526 513.372 382.585 515.214C382.645 517.056 382.514 518.851 382.49 520.586C382.49 524.057 382.229 527.278 382.074 530.214C381.92 533.15 381.635 535.812 381.456 538.142C381.278 540.472 381.04 542.48 380.838 544.085C380.636 545.689 380.494 546.949 380.387 547.853L380.244 548.827C380.235 548.942 380.207 549.055 380.161 549.16Z" fill="#263238"/>
<path d="M432.055 521.395C431.821 520.857 431.634 520.3 431.496 519.731C431.163 518.637 430.783 517.044 430.391 515.047C429.933 512.714 429.603 510.357 429.404 507.987C429.183 505.077 429.131 502.156 429.25 499.239C429.403 496.326 429.728 493.425 430.224 490.55C430.645 488.21 431.188 485.893 431.853 483.609C432.435 481.66 432.97 480.103 433.398 479.057C433.592 478.5 433.83 477.959 434.111 477.44C434.013 478.022 433.853 478.592 433.636 479.14C433.267 480.21 432.804 481.779 432.281 483.728C431.758 485.677 431.235 488.019 430.783 490.657C430.325 493.512 430.02 496.388 429.868 499.275C429.752 502.163 429.788 505.055 429.975 507.94C430.177 510.602 430.474 512.979 430.819 514.976C431.163 516.973 431.473 518.542 431.734 519.671C431.901 520.233 432.008 520.81 432.055 521.395Z" fill="#263238"/>
<path d="M472.705 503.28C472.333 502.963 471.998 502.604 471.706 502.211C471.088 501.497 470.245 500.416 469.329 499.037C464.297 491.773 461.122 483.387 460.082 474.611C459.892 472.947 459.809 471.58 459.797 470.641C459.738 470.156 459.738 469.665 459.797 469.18C459.904 469.18 459.987 471.248 460.474 474.564C461.738 483.209 464.869 491.475 469.65 498.787C471.469 501.593 472.788 503.209 472.705 503.28Z" fill="#263238"/>
<path d="M500.994 506.608C500.521 506.172 500.084 505.699 499.686 505.194C498.549 503.872 497.482 502.491 496.489 501.058C493.171 496.333 490.511 491.179 488.585 485.737C487.535 482.734 486.74 479.649 486.207 476.513C485.791 473.948 485.604 471.35 485.649 468.752C485.644 467.755 485.7 466.758 485.815 465.768C485.858 465.018 485.953 464.271 486.1 463.534C486.173 462.896 486.308 462.267 486.505 461.656C486.496 462.297 486.44 462.936 486.338 463.569C486.233 464.306 486.173 465.048 486.16 465.792C486.08 466.776 486.056 467.765 486.089 468.752C486.106 471.321 486.333 473.885 486.766 476.418C487.317 479.511 488.112 482.555 489.143 485.523C491.056 490.92 493.64 496.055 496.833 500.808C498.022 502.627 499.092 504.077 499.853 505.051C500.28 505.534 500.662 506.056 500.994 506.608Z" fill="#263238"/>
<path d="M329.051 390.067C328.987 390.353 328.904 390.635 328.802 390.91C328.603 391.505 328.33 392.297 327.981 393.288C327.28 395.344 326.246 398.315 325.117 402.024C322.141 411.682 319.841 421.535 318.235 431.513C317.498 436.077 316.939 440.499 316.535 444.587L316.464 445.324L316.012 444.742C309.677 436.671 304.447 429.956 301.321 425.879H301.523L297.85 428.102L296.888 428.66C296.783 428.733 296.667 428.785 296.543 428.815L296.84 428.589L297.767 427.959L301.333 425.582L301.452 425.499L301.535 425.617C304.768 429.599 310.069 436.255 316.44 444.302L315.917 444.457C316.309 440.32 316.856 435.887 317.593 431.299C319.215 421.294 321.599 411.428 324.725 401.786C325.913 398.09 327.007 395.142 327.779 393.109C328.16 392.135 328.469 391.374 328.706 390.732C328.806 390.503 328.921 390.28 329.051 390.067Z" fill="#263238"/>
<path d="M253.765 411.865C253.765 411.865 253.956 412.02 254.253 412.341L255.548 413.791C256.654 415.063 258.246 416.905 260.148 419.247C263.975 423.894 269.086 430.479 274.34 438.015C276.634 441.295 278.762 444.492 280.663 447.428H280.188L289.269 434.52L291.919 430.847C292.216 430.389 292.554 429.959 292.93 429.564C292.676 430.046 292.39 430.51 292.074 430.954L289.566 434.722C287.32 438.003 284.241 442.507 280.663 447.797L280.414 448.153L280.176 447.785C278.262 444.861 276.123 441.687 273.841 438.407C268.587 430.883 263.536 424.274 259.815 419.556L255.37 413.981L254.181 412.46C254.018 412.28 253.878 412.08 253.765 411.865Z" fill="#263238"/>
<path d="M360.133 622.865L359.931 622.996L359.301 623.352L358.267 623.923L357.601 624.291L356.805 624.612C353.546 625.918 350.166 626.897 346.714 627.536C337.882 629.295 325.188 630.401 310.378 630.389C284.488 627.314 259.301 619.896 235.877 608.447C229.226 605.288 222.779 601.715 216.574 597.75L216.931 597.928L217.929 598.475L221.745 600.65L227.842 603.966C230.219 605.155 232.977 606.629 236.067 608.067C259.501 619.316 284.62 626.648 310.426 629.771C325.188 629.83 337.87 628.808 346.678 627.144C350.116 626.544 353.49 625.624 356.757 624.398L357.566 624.101L358.243 623.757L359.289 623.234L359.943 622.925L360.133 622.865Z" fill="#263238"/>
<path d="M351.848 595.147L351.575 595.218L350.791 595.385L347.736 595.979C345.073 596.395 341.199 596.882 336.397 597.239C326.769 598 313.445 598.154 298.742 597.75C284.039 597.346 270.75 596.347 261.159 595.313C256.404 594.79 252.506 594.244 249.843 593.816L246.788 593.245L246.004 593.079C245.826 593.079 245.731 593.019 245.742 593.008H246.016L246.812 593.115L249.879 593.566C252.553 593.923 256.416 594.398 261.206 594.874C270.786 595.789 284.075 596.68 298.766 597.12C313.457 597.56 326.757 597.441 336.361 596.787C341.115 596.49 345.038 596.074 347.7 595.729L350.767 595.254L351.563 595.147C351.657 595.128 351.754 595.128 351.848 595.147Z" fill="#263238"/>
<path d="M314.027 630.104C313.932 630.104 314.574 628.321 315.216 625.421C316.071 621.633 316.564 617.772 316.69 613.891C316.873 610.02 316.586 606.14 315.834 602.338C315.443 600.777 314.97 599.238 314.42 597.726C314.682 598.096 314.901 598.495 315.073 598.915C315.569 599.998 315.967 601.124 316.262 602.279C317.159 606.105 317.515 610.038 317.32 613.962C317.198 617.883 316.64 621.778 315.656 625.575C315.477 626.3 315.263 626.954 315.085 627.512C314.907 628.071 314.729 628.57 314.562 628.963C314.433 629.364 314.253 629.748 314.027 630.104Z" fill="#263238"/>
<path d="M312.625 654.41C312.413 653.274 312.321 652.119 312.351 650.963C312.351 648.836 312.28 645.888 312.351 642.643C312.423 639.398 312.446 636.7 312.482 634.323C312.449 633.171 312.509 632.019 312.66 630.876C312.865 632.009 312.953 633.16 312.922 634.311C312.922 636.451 312.993 639.398 312.922 642.631C312.85 645.864 312.815 648.574 312.779 650.952C312.808 652.107 312.757 653.263 312.625 654.41Z" fill="#263238"/>
<path d="M210.857 512.718C210.375 512.803 209.884 512.831 209.395 512.801C208.456 512.801 207.101 512.801 205.425 512.896C196.697 513.253 188.079 514.991 179.894 518.043C178.325 518.613 177.053 519.113 176.186 519.469C175.745 519.684 175.283 519.852 174.807 519.968C175.204 519.678 175.635 519.439 176.091 519.255C176.935 518.827 178.171 518.269 179.74 517.627C187.907 514.345 196.612 512.605 205.413 512.492C207.101 512.492 208.468 512.492 209.407 512.599C209.893 512.59 210.379 512.629 210.857 512.718Z" fill="#263238"/>
<path d="M172.275 523.13C170.483 524.683 168.851 526.411 167.402 528.288C164.084 532.964 161.955 538.378 161.198 544.061C160.487 549.748 160.415 555.497 160.984 561.201C161.162 563.316 161.316 565.075 161.423 566.407C161.516 567.04 161.548 567.681 161.518 568.32C161.36 567.7 161.249 567.068 161.186 566.43C161.007 565.242 160.782 563.435 160.556 561.236C159.837 555.502 159.837 549.7 160.556 543.966C161.317 538.193 163.534 532.708 166.998 528.027C168.072 526.637 169.296 525.369 170.647 524.247C171.122 523.843 171.538 523.582 171.835 523.391C172.133 523.201 172.251 523.118 172.275 523.13Z" fill="#263238"/>
<path d="M246.028 486.949C246.218 486.949 246.515 490.646 247.977 494.948C249.439 499.251 251.4 502.425 251.234 502.52C250.653 501.943 250.175 501.272 249.819 500.535C248.848 498.824 248.052 497.02 247.442 495.15C246.813 493.283 246.378 491.355 246.147 489.398C245.969 488.594 245.929 487.766 246.028 486.949Z" fill="white"/>
<g opacity="0.3">
<path opacity="0.3" d="M238.468 493.926C242.364 495.379 246.63 495.504 250.604 494.283C250.604 496.077 250.687 497.848 250.734 499.691C260.325 496.899 268.614 490.795 274.127 482.466C279.64 474.137 282.019 464.122 280.842 454.203C281.543 455.76 283.837 455.998 285.287 455.071C286.643 454.008 287.636 452.55 288.128 450.899C290.564 444.714 291.981 438.175 292.323 431.537L280.331 447.297C275.899 439.961 270.431 433.303 264.094 427.531C258.326 449.881 250.454 471.634 240.584 492.5" fill="black"/>
</g>
<g opacity="0.3">
<path opacity="0.3" d="M433.149 479.081C424.401 491.097 420.309 505.878 421.631 520.681C421.674 521.941 421.986 523.177 422.546 524.307C422.838 524.864 423.282 525.327 423.827 525.641C424.373 525.955 424.996 526.106 425.625 526.078C427.194 525.876 428.168 524.271 428.632 522.773C429.82 518.91 429.274 514.762 429.012 510.721C428.342 499.777 430.091 488.82 434.135 478.629" fill="black"/>
</g>
<g opacity="0.3">
<path opacity="0.3" d="M494.468 497.016L495.419 498.954C496.334 499.524 496.608 500.998 497.273 501.806C497.67 502.203 498.176 502.472 498.727 502.578C499.278 502.684 499.848 502.622 500.364 502.401C500.861 502.121 501.273 501.71 501.552 501.212C504.765 496.307 506.982 490.819 508.078 485.059C502.927 488.286 498.332 492.324 494.468 497.016Z" fill="black"/>
</g>
<g opacity="0.3">
<path opacity="0.3" d="M460.474 475.907C460.246 483.849 461.746 491.745 464.872 499.049C468.055 506.383 473.713 512.365 480.859 515.951C472.8 503.982 463.41 492.333 460.474 475.907Z" fill="black"/>
</g>
<g opacity="0.3">
<path opacity="0.3" d="M253.444 616.102H253.563C252.826 615.46 252.09 614.818 251.376 614.153L253.444 616.102Z" fill="black"/>
</g>
<g opacity="0.3">
<path opacity="0.3" d="M253.563 616.15C267.662 628.426 285.263 635.96 303.877 637.686C322.492 639.411 341.178 635.241 357.292 625.765C322.613 634.244 286.093 630.859 253.563 616.15Z" fill="black"/>
</g>
<path d="M196.154 535.658C195.772 535.816 195.373 535.932 194.966 536.002C193.851 536.257 192.724 536.456 191.59 536.597C184.089 537.584 176.461 536.84 169.292 534.422C167.925 533.946 166.843 533.53 166.106 533.233C165.713 533.087 165.338 532.896 164.989 532.663C164.989 532.567 166.689 533.233 169.423 534.053C172.999 535.117 176.669 535.842 180.381 536.216C184.093 536.571 187.831 536.571 191.542 536.216C194.336 535.872 196.13 535.551 196.154 535.658Z" fill="white"/>
<path d="M196.903 546.45C196.464 546.67 196.002 546.837 195.524 546.949C194.621 547.235 193.29 547.567 191.637 547.912C182.936 549.633 173.939 549.122 165.488 546.426C163.884 545.903 162.6 545.416 161.732 545.036C161.272 544.863 160.83 544.644 160.413 544.382C160.413 544.275 162.386 545.071 165.619 546.01C174.047 548.449 182.918 548.949 191.566 547.472C194.859 546.914 196.867 546.343 196.903 546.45Z" fill="white"/>
<path d="M203.309 452.931C202.761 453.175 202.192 453.37 201.61 453.514L196.95 454.928C193.016 456.117 187.596 457.828 181.665 459.897C175.734 461.965 170.421 463.997 166.594 465.507L162.065 467.29C161.525 467.547 160.959 467.746 160.377 467.884C160.883 467.568 161.416 467.297 161.97 467.076C163.016 466.576 164.537 465.887 166.427 465.103C170.219 463.486 175.52 461.382 181.463 459.314C187.406 457.246 192.85 455.594 196.832 454.56C198.817 454.013 200.397 453.597 201.586 453.371C202.145 453.169 202.722 453.022 203.309 452.931Z" fill="white"/>
<path d="M207.303 472.115C207.303 472.282 196.534 474.409 183.198 476.87C169.862 479.33 159.01 481.196 158.987 480.97C158.963 480.745 169.743 478.688 183.091 476.216C196.439 473.744 207.267 471.949 207.303 472.115Z" fill="white"/>
<path d="M320.66 416.061C320.505 416.18 318.378 413.375 315.061 410.641C311.745 407.907 308.619 406.327 308.702 406.148C309.457 406.339 310.179 406.643 310.842 407.052C312.482 407.935 314.03 408.978 315.465 410.166C316.898 411.356 318.208 412.685 319.376 414.136C319.902 414.706 320.335 415.356 320.66 416.061Z" fill="white"/>
<path d="M323.952 410.118C323.798 410.225 321.848 407.598 318.912 404.865C315.977 402.131 313.243 400.336 313.35 400.181C315.566 401.228 317.579 402.661 319.293 404.413C321.179 406.016 322.758 407.949 323.952 410.118Z" fill="white"/>
<path d="M268.492 595.575C268.326 595.575 266.115 584.39 263.56 570.519C261.004 556.648 259.067 545.38 259.233 545.38C259.399 545.38 261.61 556.577 264.166 570.448C266.721 584.319 268.659 595.551 268.492 595.575Z" fill="white"/>
<path d="M283.29 596.847C283.192 596.647 283.12 596.435 283.076 596.217C282.957 595.741 282.791 595.135 282.601 594.398C282.197 592.817 281.638 590.523 280.984 587.683C279.689 581.989 278.025 574.097 276.456 565.325C274.887 556.553 273.71 548.566 272.961 542.742C272.593 539.842 272.308 537.5 272.153 535.872L271.975 534.006C271.946 533.785 271.946 533.561 271.975 533.34C272.05 533.551 272.098 533.771 272.117 533.994L272.415 535.848C272.664 537.548 273.009 539.854 273.425 542.682C274.281 548.447 275.529 556.411 277.086 565.183C278.643 573.954 280.247 581.823 281.436 587.552C282.03 590.333 282.506 592.627 282.862 594.315L283.219 596.157C283.276 596.382 283.3 596.615 283.29 596.847Z" fill="white"/>
<path d="M255.834 616.15C255.456 612.74 255.277 609.311 255.299 605.88C255.127 602.458 255.158 599.029 255.394 595.611C255.772 599.016 255.95 602.441 255.929 605.868C256.101 609.294 256.069 612.727 255.834 616.15Z" fill="white"/>
<path d="M266.971 620.131C266.581 618.973 266.31 617.778 266.163 616.566C265.176 610.821 264.861 604.982 265.224 599.164C265.239 597.964 265.383 596.769 265.651 595.599C265.732 596.786 265.732 597.977 265.651 599.164C265.651 601.387 265.651 604.454 265.806 607.841C265.96 611.229 266.317 614.272 266.59 616.482C266.806 617.688 266.933 618.907 266.971 620.131Z" fill="white"/>
<path d="M275.243 655.242C275.077 655.242 274.839 648.42 274.708 640.005C274.578 631.589 274.625 624.767 274.804 624.767C274.982 624.767 275.208 631.577 275.338 640.005C275.469 648.432 275.422 655.242 275.243 655.242Z" fill="white"/>
<path d="M287.807 653.258C287.64 653.258 287.403 647.315 287.296 640.017C287.189 632.719 287.224 626.752 287.391 626.752C287.557 626.752 287.795 632.695 287.914 640.005C288.033 647.315 287.985 653.258 287.807 653.258Z" fill="white"/>
<path d="M406.203 445.372C406.298 445.503 400.189 450.257 392.558 455.998C384.927 461.739 378.639 466.267 378.544 466.125C378.449 465.982 384.547 461.228 392.189 455.499C399.832 449.77 406.096 445.229 406.203 445.372Z" fill="white"/>
<path d="M402.174 436.695C402.281 436.838 396.1 441.45 388.374 447.107C380.648 452.765 374.301 457.163 374.194 457.02C374.087 456.878 380.28 452.266 388.006 446.608C395.731 440.95 402.079 436.553 402.174 436.695Z" fill="white"/>
<path d="M454.698 545.083C454.509 544.91 454.341 544.714 454.198 544.501L452.855 542.766L451.904 541.506C451.572 541.03 451.239 540.495 450.87 539.937C450.145 538.748 449.242 537.56 448.493 536.026L447.186 533.649C446.746 532.841 446.354 531.949 445.914 531.046C445.011 529.263 444.25 527.254 443.406 525.174C439.964 515.992 438.306 506.238 438.521 496.434C438.628 494.176 438.675 492.036 438.949 490.051C439.068 489.053 439.139 488.09 439.293 487.175C439.448 486.26 439.602 485.38 439.745 484.536C439.995 482.848 440.423 481.375 440.732 480.055C440.898 479.401 441.029 478.783 441.195 478.225C441.362 477.666 441.528 477.179 441.671 476.715C441.956 475.871 442.182 475.182 442.36 474.647C442.425 474.398 442.521 474.159 442.645 473.934C442.619 474.189 442.563 474.44 442.479 474.683C442.336 475.229 442.146 475.871 441.908 476.787L441.48 478.308C441.338 478.867 441.219 479.497 441.064 480.138C440.791 481.458 440.399 482.932 440.173 484.619C440.042 485.451 439.912 486.331 439.757 487.234C439.603 488.138 439.567 489.112 439.46 490.099C439.21 492.084 439.186 494.211 439.091 496.446C438.935 506.172 440.579 515.844 443.941 524.972C444.761 527.052 445.498 529.049 446.318 530.832C446.746 531.735 447.126 532.615 447.507 533.435L448.767 535.812C449.527 537.322 450.395 538.594 451.084 539.747C451.441 540.317 451.762 540.852 452.083 541.339L452.986 542.623L454.175 544.43C454.373 544.627 454.548 544.847 454.698 545.083Z" fill="white"/>
<path d="M468.901 533.495C468.725 533.347 468.565 533.179 468.426 532.995L467.142 531.521C466.584 530.88 465.954 530.071 465.205 529.144C464.456 528.217 463.624 527.088 462.828 525.804C462.031 524.521 461.045 523.154 460.153 521.597C459.262 520.04 458.335 518.364 457.396 516.569C453.446 508.72 450.763 500.296 449.444 491.608C449.171 489.612 448.886 487.71 448.779 485.915C448.672 484.12 448.553 482.468 448.517 480.935C448.481 479.401 448.517 478.035 448.517 476.822C448.517 475.61 448.612 474.576 448.695 473.72C448.779 472.864 448.838 472.282 448.886 471.771C448.892 471.541 448.928 471.314 448.992 471.093C449.013 471.322 449.013 471.553 448.992 471.783C448.992 472.294 448.992 472.971 448.921 473.732C448.85 474.493 448.838 475.622 448.862 476.834C448.886 478.046 448.862 479.413 448.921 480.923C448.981 482.432 449.052 484.096 449.254 485.867C449.456 487.638 449.682 489.54 449.967 491.525C451.343 500.124 454.008 508.467 457.871 516.272C458.798 518.055 459.642 519.766 460.569 521.288C461.496 522.809 462.329 524.247 463.161 525.507C463.993 526.767 464.789 527.884 465.478 528.883C466.168 529.881 466.798 530.701 467.333 531.367L468.521 532.924C468.723 533.292 468.901 533.495 468.901 533.495Z" fill="white"/>
<path d="M484.936 475.681C484.936 475.788 483.592 475.681 481.453 475.681C478.667 475.766 475.9 476.165 473.204 476.87C470.515 477.594 467.918 478.627 465.466 479.948C463.577 480.959 462.483 481.719 462.424 481.636C462.364 481.553 462.638 481.374 463.125 481.006C463.797 480.479 464.504 479.999 465.241 479.568C470.137 476.646 475.752 475.151 481.453 475.253C482.308 475.262 483.162 475.325 484.008 475.443C484.328 475.474 484.641 475.554 484.936 475.681Z" fill="white"/>
<path d="M486.897 487.757C486.897 487.852 485.708 487.662 483.711 487.543C478.596 487.209 473.466 487.946 468.652 489.707C466.809 490.372 465.692 490.895 465.656 490.812C466.52 490.172 467.473 489.663 468.485 489.302C470.882 488.292 473.399 487.592 475.974 487.222C478.549 486.855 481.161 486.815 483.747 487.104C484.823 487.171 485.883 487.391 486.897 487.757Z" fill="white"/>
<path d="M281.543 419.175C281.662 419.306 278.916 422.004 275.778 425.546C272.64 429.088 270.251 432.107 270.109 432C270.459 431.228 270.915 430.508 271.464 429.861C272.391 428.601 273.734 426.913 275.315 425.106C276.896 423.3 278.429 421.802 279.57 420.744C280.153 420.134 280.817 419.606 281.543 419.175Z" fill="white"/>
<path d="M277.537 413.03C275.918 415.042 274.141 416.922 272.224 418.652C270.442 420.52 268.518 422.249 266.471 423.823C268.091 421.811 269.868 419.931 271.785 418.201C273.567 416.333 275.49 414.604 277.537 413.03Z" fill="white"/>
<path d="M381.433 533.851C381.205 533.935 380.97 533.999 380.731 534.041L378.687 534.469C376.916 534.838 374.325 535.313 371.127 535.848C364.721 536.906 355.83 538.118 345.953 538.891C336.076 539.663 327.102 539.877 320.612 539.818C317.367 539.818 314.74 539.735 312.934 539.651L310.842 539.544C310.598 539.544 310.355 539.516 310.117 539.461C310.358 539.433 310.601 539.433 310.842 539.461H312.934C314.752 539.461 317.367 539.461 320.612 539.461C327.09 539.402 336.064 539.14 345.905 538.368C355.747 537.595 364.65 536.454 371.056 535.491C374.265 535.016 376.857 534.612 378.639 534.303L380.708 533.982C380.943 533.909 381.187 533.865 381.433 533.851Z" fill="white"/>
<path d="M381.932 544.584C381.706 544.673 381.471 544.737 381.231 544.774L379.186 545.202C377.403 545.571 374.824 546.046 371.615 546.581C365.22 547.651 356.329 548.851 346.452 549.636C336.575 550.42 327.601 550.61 321.111 550.563C317.866 550.563 315.24 550.468 313.421 550.384L311.341 550.277C311.097 550.279 310.854 550.251 310.616 550.194C310.857 550.171 311.1 550.171 311.341 550.194H313.433C315.24 550.194 317.866 550.194 321.111 550.194C327.589 550.135 336.563 549.861 346.405 549.089C356.246 548.316 365.137 547.175 371.555 546.224C374.753 545.749 377.344 545.333 379.139 545.036L381.207 544.727C381.441 544.647 381.685 544.599 381.932 544.584Z" fill="white"/>
<g opacity="0.3">
<path opacity="0.3" d="M386.211 545.773C392.748 530.677 393.128 512.611 389.776 496.517C386.425 480.424 379.804 465.221 373.231 450.162C382.538 484.001 382.086 506.846 381.444 538.118L386.211 545.773Z" fill="black"/>
</g>
<path d="M486.528 461.656L527.036 426.152L539.148 450.614L495.514 498.954C495.514 498.954 482.035 477.036 486.528 461.656Z" fill="#FFBE9D"/>
<path d="M577.278 422.289C577.278 422.289 573.284 419.009 564.893 421.754C556.501 424.5 551.236 421.338 547.789 420.316C544.001 419.311 540.008 419.376 536.254 420.502C532.501 421.629 529.133 423.774 526.525 426.699L539.147 450.614L580.095 452.397L613.91 451.137C614.294 450.221 614.335 449.197 614.025 448.254C613.715 447.311 613.075 446.511 612.222 446.002L619.354 443.981C619.354 443.981 619.354 437.527 611.664 438.038L613.411 434.33C613.411 434.33 608.871 429.064 604.473 435.102C604.473 435.102 600.17 431.537 593.882 437.266L587.131 439.025L570.847 433.248C570.847 433.248 584.279 429.219 577.278 422.289Z" fill="#FFBE9D"/>
<path d="M582.912 443.161C582.29 442.984 581.682 442.762 581.093 442.496L576.232 440.499C572.131 438.787 566.497 436.386 560.281 433.688C557.155 432.357 554.231 430.978 551.461 430.122C549.027 429.28 546.446 428.948 543.878 429.148C542.148 429.291 540.467 429.797 538.945 430.633C537.888 431.239 537.376 431.715 537.341 431.679C537.305 431.644 537.448 431.537 537.686 431.299C538.055 430.972 538.453 430.677 538.874 430.419C540.392 429.48 542.103 428.895 543.878 428.708C546.509 428.443 549.167 428.738 551.675 429.575C554.516 430.443 557.452 431.81 560.566 433.141C566.782 435.839 572.452 438.312 576.458 440.118L581.212 442.305C581.806 442.533 582.375 442.82 582.912 443.161Z" fill="#EB996E"/>
<path d="M589.663 446.216C590.37 445.552 591.134 444.952 591.945 444.421C593.395 443.363 595.38 441.901 597.52 440.202C599.659 438.502 601.549 436.921 602.904 435.768C603.604 435.089 604.368 434.48 605.186 433.95C604.608 434.736 603.942 435.454 603.201 436.089C601.905 437.337 600.051 438.989 597.9 440.689C595.749 442.389 593.704 443.815 592.195 444.79C591.411 445.364 590.561 445.843 589.663 446.216Z" fill="#EB996E"/>
<path d="M599.909 451.267C599.778 451.125 602.88 448.486 606.101 444.659C609.322 440.832 611.414 437.349 611.581 437.444C611.295 438.287 610.895 439.087 610.392 439.821C609.263 441.658 607.995 443.407 606.6 445.051C605.212 446.699 603.702 448.24 602.084 449.663C601.436 450.295 600.704 450.835 599.909 451.267Z" fill="#EB996E"/>
<path d="M208.254 521.609C209.134 521.609 287.676 485.297 287.676 485.297L300.37 508.914C300.37 508.914 236.186 566.847 222.351 569.212C208.516 571.577 192.636 569.438 192.636 554.675C192.636 539.913 208.254 521.609 208.254 521.609Z" fill="#FFBE9D"/>
<path d="M338.394 480.661C338.394 480.661 334.4 477.381 326.02 480.126C317.641 482.872 312.363 479.71 308.904 478.688C305.096 477.744 301.101 477.866 297.357 479.04C293.613 480.214 290.264 482.395 287.676 485.344L300.275 508.986L341.21 510.769L375.002 509.509C375.386 508.593 375.427 507.569 375.117 506.626C374.807 505.683 374.167 504.883 373.314 504.374L380.446 502.353C380.446 502.353 380.446 495.899 372.756 496.41L374.503 492.702C374.503 492.702 369.963 487.436 365.565 493.474C365.565 493.474 361.274 489.909 354.986 495.638L348.223 497.397L331.939 491.62C331.939 491.62 345.406 487.591 338.394 480.661Z" fill="#FFBE9D"/>
<path d="M331.868 491.668C330.897 491.909 329.897 492.02 328.897 492.001C327.042 492.096 324.487 492.06 321.67 492.001C318.853 491.941 316.321 491.846 314.538 491.834C313.542 491.886 312.543 491.843 311.555 491.703C312.536 491.495 313.536 491.391 314.538 491.394C316.381 491.299 318.936 491.287 321.753 491.394C324.57 491.501 327.102 491.596 328.885 491.608C329.879 491.549 330.877 491.568 331.868 491.668Z" fill="#EB996E"/>
<path d="M375.68 497.266C375.331 497.406 374.962 497.491 374.586 497.516C373.873 497.635 372.839 497.777 371.555 497.92C369 498.205 365.434 498.478 361.5 498.562C357.566 498.645 354 498.562 351.421 498.336C350.137 498.253 349.043 498.158 348.378 498.062C348.003 498.046 347.631 497.982 347.272 497.872C348.661 497.78 350.055 497.78 351.444 497.872C354.012 497.932 357.566 497.991 361.488 497.872C365.41 497.753 368.952 497.587 371.52 497.409C372.902 497.279 374.292 497.231 375.68 497.266Z" fill="#EB996E"/>
<path d="M340.224 267.807C338.096 249.265 324.606 227.062 306.171 229.974L249.011 247.554C246.309 247.981 243.865 249.406 242.162 251.547C240.459 253.688 239.62 256.39 239.811 259.119L256.202 392.61C259.269 395.356 295.485 428.423 295.485 428.423L316.987 389.056C316.987 389.056 316.036 365.486 316.06 365.641C316.084 365.795 339.63 360.482 342.97 329.222C344.646 313.664 342.577 288.418 340.224 267.807Z" fill="#FFBE9D"/>
<path d="M333.14 292.209C333.199 293.246 332.853 294.265 332.174 295.05C331.495 295.836 330.537 296.326 329.503 296.417C328.999 296.482 328.488 296.445 327.999 296.31C327.51 296.174 327.053 295.942 326.654 295.628C326.256 295.314 325.924 294.923 325.678 294.479C325.433 294.035 325.278 293.546 325.224 293.041C325.16 292.015 325.496 291.004 326.16 290.22C326.825 289.436 327.767 288.939 328.79 288.834C329.299 288.757 329.818 288.785 330.316 288.915C330.814 289.044 331.281 289.274 331.688 289.59C332.094 289.905 332.433 290.3 332.682 290.751C332.932 291.201 333.088 291.697 333.14 292.209Z" fill="#263238"/>
<path d="M335.03 283.747C334.566 284.293 331.464 282.213 327.149 282.439C322.835 282.665 319.851 284.971 319.352 284.472C319.114 284.246 319.566 283.283 320.885 282.225C322.675 280.848 324.846 280.055 327.102 279.955C329.327 279.836 331.533 280.427 333.401 281.643C334.768 282.582 335.256 283.497 335.03 283.747Z" fill="#263238"/>
<path d="M292.478 294.729C292.541 295.766 292.195 296.787 291.516 297.573C290.836 298.359 289.876 298.849 288.841 298.937C288.337 299.005 287.825 298.971 287.334 298.836C286.844 298.702 286.385 298.471 285.986 298.156C285.587 297.841 285.255 297.449 285.01 297.003C284.766 296.557 284.613 296.067 284.562 295.561C284.499 294.526 284.843 293.507 285.52 292.721C286.197 291.935 287.154 291.445 288.187 291.354C288.691 291.289 289.203 291.325 289.693 291.461C290.183 291.596 290.641 291.827 291.04 292.142C291.44 292.456 291.773 292.847 292.019 293.291C292.266 293.735 292.422 294.224 292.478 294.729Z" fill="#263238"/>
<path d="M292.371 286.041C291.908 286.587 288.805 284.507 284.503 284.745C280.2 284.983 277.193 287.265 276.705 286.766C276.468 286.552 276.907 285.577 278.239 284.519C280.025 283.143 282.191 282.351 284.443 282.249C286.669 282.13 288.875 282.721 290.743 283.937C292.11 284.888 292.609 285.803 292.371 286.041Z" fill="#263238"/>
<path d="M310.533 315.149C310.533 314.9 313.136 314.305 317.415 313.533C318.508 313.366 319.53 313.093 319.673 312.344C319.708 311.209 319.397 310.09 318.782 309.135L315.121 300.981C310.034 289.357 306.278 279.789 306.801 279.586C307.324 279.384 311.781 288.632 316.868 300.256C318.104 303.117 319.293 305.854 320.434 308.469C320.909 309.658 321.694 311.072 321.218 312.736C321.08 313.13 320.855 313.486 320.558 313.779C320.261 314.071 319.902 314.292 319.507 314.424C318.91 314.62 318.291 314.74 317.664 314.781C313.255 315.232 310.557 315.387 310.533 315.149Z" fill="#263238"/>
<path d="M316.072 365.641C301.48 366.611 286.906 363.513 273.972 356.691C273.972 356.691 285.537 377.479 316.428 372.986L316.072 365.641Z" fill="#EB996E"/>
<path d="M294.178 269.495C293.809 270.684 289.507 270.351 284.514 271.207C279.522 272.063 275.541 273.655 274.816 272.645C274.495 272.158 275.148 271.029 276.729 269.816C278.838 268.29 281.285 267.295 283.861 266.916C286.412 266.475 289.031 266.646 291.503 267.415C293.334 268.069 294.308 268.937 294.178 269.495Z" fill="#263238"/>
<path d="M334.447 269.151C333.746 270.161 330.751 269.305 327.197 269.436C323.643 269.567 320.683 270.422 319.935 269.436C319.614 268.948 320.03 267.95 321.302 266.964C323.009 265.771 325.033 265.113 327.115 265.072C329.198 265.032 331.245 265.612 332.997 266.738C334.293 267.677 334.756 268.663 334.447 269.151Z" fill="#263238"/>
<path d="M231.931 252.035C234.7 247.387 239.906 244.903 244.875 242.716C266.338 233.492 288.821 226.852 311.852 222.938C314.919 227.573 312.494 234.135 308.286 237.76C304.079 241.385 298.54 242.954 293.405 245.093C288.27 247.233 283.064 250.43 281.115 255.636C279.047 261.163 281.21 267.522 279.427 273.168C276.337 282.855 263.12 286.445 260.089 296.144C257.807 303.489 262.288 311.037 263.655 318.608C264.34 322.457 264.197 326.408 263.234 330.197C262.271 333.986 260.51 337.526 258.07 340.58C255.63 343.634 252.566 346.133 249.083 347.909C245.601 349.685 241.779 350.697 237.874 350.878C235.235 323.517 232.608 296.155 229.993 268.794C229.447 263.089 228.995 256.944 231.931 252.035Z" fill="#263238"/>
<path d="M313.195 328.355C312.666 330.247 311.865 332.052 310.818 333.715C310.288 334.538 309.591 335.239 308.772 335.774C307.953 336.308 307.03 336.664 306.064 336.817C305.015 336.872 303.97 336.661 303.024 336.204C302.079 335.746 301.264 335.058 300.656 334.202C299.456 332.457 298.84 330.377 298.896 328.259C298.896 326.37 299.645 324.064 301.511 323.755C302.301 323.691 303.093 323.826 303.817 324.147L313.873 327.713" fill="#EB996E"/>
<path d="M309.629 336.663C309.558 336.354 307.442 337.34 304.34 336.271C302.577 335.684 301.095 334.464 300.18 332.847C299.659 331.865 299.35 330.783 299.275 329.673C299.199 328.563 299.358 327.45 299.74 326.405C299.94 325.868 300.203 325.358 300.525 324.884C300.893 324.456 300.822 324.48 301.25 324.515C301.678 324.551 302.32 324.884 302.866 325.062L304.518 325.645C306.67 326.393 308.619 327.047 310.259 327.57C313.552 328.628 315.632 329.163 315.715 328.925C315.798 328.687 313.873 327.736 310.699 326.405C309.106 325.728 307.205 324.955 305.077 324.123L303.449 323.481C302.866 323.279 302.403 323.042 301.606 322.828C301.119 322.712 300.607 322.754 300.144 322.946C299.722 323.154 299.361 323.47 299.098 323.862C298.679 324.457 298.339 325.104 298.088 325.787C297.613 327.069 297.427 328.441 297.544 329.803C297.662 331.166 298.079 332.485 298.766 333.668C299.933 335.571 301.804 336.937 303.972 337.471C305.376 337.858 306.859 337.858 308.263 337.471C309.225 337.115 309.629 336.758 309.629 336.663Z" fill="#263238"/>
<path d="M633.165 654.173C633.165 654.339 523.422 654.482 388.089 654.482C252.755 654.482 142.988 654.339 142.988 654.173C142.988 654.006 252.708 653.864 388.089 653.864C523.47 653.864 633.165 653.994 633.165 654.173Z" fill="#263238"/>
<path d="M468.402 362.265L468.058 290.355L529.151 257.288V327.808L468.402 362.265Z" fill="#1C6056"/>
<g opacity="0.3">
<path opacity="0.3" d="M468.402 362.265L468.058 290.355L529.151 257.288V327.808L468.402 362.265Z" fill="black"/>
</g>
<path d="M545.459 252.296L544.52 323.362L606.636 357.202V286.813L545.459 252.296Z" fill="#1C6056"/>
<g opacity="0.4">
<path opacity="0.4" d="M545.459 252.296L544.52 323.362L606.636 357.202V286.813L545.459 252.296Z" fill="black"/>
</g>
<path d="M468.058 362.17L529.722 397.555L590.685 363.038L529.14 326.976L468.058 362.17Z" fill="#1C6056"/>
<g opacity="0.5">
<path opacity="0.5" d="M468.058 362.17L529.722 397.555L590.685 363.038L529.14 326.976L468.058 362.17Z" fill="black"/>
</g>
<path d="M529.722 397.555L529.365 325.645L590.459 292.578V363.097L529.722 397.555Z" fill="#1C6056"/>
<path d="M469.353 252.249L531.018 287.621L591.981 253.104L530.435 217.042L469.353 252.249Z" fill="#1C6056"/>
<path d="M531.529 396.532C531.529 396.532 531.873 396.307 532.563 395.903L535.641 394.12C538.363 392.551 542.333 390.269 547.432 387.357L590.34 362.883L590.222 363.097C590.222 342.974 590.222 318.881 590.162 292.578L590.602 292.851L558.046 310.514L529.52 325.965L529.686 325.692C529.793 352.412 529.9 376.909 529.984 397.602V397.994L529.603 397.781L484.745 371.917L472.384 364.785L469.163 362.895C468.426 362.455 468.069 362.218 468.069 362.218L469.199 362.824L472.455 364.654L484.888 371.715L529.853 397.388L529.484 397.602C529.365 376.909 529.223 352.436 529.08 325.704V325.49L529.235 325.407L557.761 309.955L590.376 292.304L590.828 292.067V292.566C590.828 318.87 590.828 342.962 590.828 363.085V363.228L590.697 363.299L547.682 387.582L535.796 394.227L532.682 395.95L531.529 396.532Z" fill="black"/>
<path d="M529.139 326.976C529.235 327.118 515.696 335.141 498.937 344.888C482.178 354.634 468.497 362.408 468.402 362.265C468.307 362.123 481.845 354.1 498.616 344.353C515.387 334.607 529.056 326.821 529.139 326.976Z" fill="black"/>
<path d="M450.775 263.279L449.836 334.345L511.952 368.184V297.796L450.775 263.279Z" fill="#1C6056"/>
<path d="M450.775 263.279L451.049 263.421L451.881 263.885L455.138 265.692L467.558 272.621L512.083 297.582L512.214 297.665V297.819C512.214 318.275 512.214 342.428 512.214 368.208V368.731L511.75 368.482L511.239 368.208L449.658 334.607L449.515 334.523V334.369C449.86 313.034 450.157 295.24 450.359 282.748C450.466 276.567 450.55 271.694 450.609 268.354C450.609 266.714 450.633 265.454 450.68 264.574C450.68 264.17 450.68 263.849 450.68 263.624C450.67 263.517 450.67 263.409 450.68 263.303V264.646C450.68 265.537 450.68 266.821 450.68 268.485C450.68 271.849 450.609 276.746 450.55 282.974C450.431 295.407 450.252 313.129 450.027 334.369L449.896 334.131L511.513 367.661L512.024 367.935L511.572 368.208C511.572 342.428 511.572 318.287 511.572 297.819L511.715 298.057L467.523 272.942L455.102 265.811L451.809 263.933L450.954 263.433C450.89 263.387 450.831 263.335 450.775 263.279Z" fill="#263238"/>
<path d="M438.283 341.31C438.117 341.31 437.974 324.242 437.974 303.204C437.974 282.166 438.117 265.086 438.283 265.086C438.45 265.086 438.592 282.142 438.592 303.204C438.592 324.266 438.461 341.31 438.283 341.31Z" fill="#263238"/>
<path d="M432.364 324.622C432.198 324.622 432.055 307.554 432.055 286.516C432.055 265.478 432.198 248.398 432.364 248.398C432.53 248.398 432.673 265.466 432.673 286.516C432.673 307.566 432.53 324.622 432.364 324.622Z" fill="#263238"/>
<path d="M536.283 201.876C536.11 202.02 535.918 202.14 535.713 202.233L534.049 203.112L527.844 206.309C522.614 208.984 515.388 212.704 507.448 216.888C499.508 221.072 492.341 224.911 487.17 227.704L481.025 231.008L479.349 231.888C479.16 232.003 478.956 232.091 478.743 232.15C478.913 232.006 479.096 231.879 479.29 231.769L480.906 230.795C482.333 229.962 484.389 228.774 486.956 227.324C492.079 224.436 499.211 220.513 507.162 216.341C515.114 212.169 522.376 208.496 527.666 205.917C530.304 204.622 532.42 203.54 533.953 202.898L535.677 202.114C535.872 202.017 536.075 201.938 536.283 201.876Z" fill="#263238"/>
<path d="M521.319 205.584C521.145 205.718 520.958 205.834 520.76 205.929L519.084 206.821L512.879 210.006C507.638 212.692 500.411 216.401 492.471 220.584C484.531 224.768 477.364 228.619 472.194 231.413L466.061 234.705L464.373 235.585C464.185 235.701 463.981 235.79 463.767 235.846C463.935 235.704 464.119 235.581 464.313 235.478L465.942 234.503C467.356 233.659 469.424 232.47 471.98 231.02C477.103 228.132 484.234 224.222 492.186 220.038C500.138 215.854 507.388 212.193 512.677 209.614C515.328 208.318 517.432 207.237 518.965 206.607L520.689 205.81C520.887 205.707 521.099 205.631 521.319 205.584Z" fill="#263238"/>
<path d="M615.348 368.28C615.182 368.28 615.039 355.205 615.039 338.992C615.039 322.78 615.182 309.705 615.348 309.705C615.515 309.705 615.657 322.78 615.657 338.992C615.657 355.205 615.527 368.28 615.348 368.28Z" fill="#263238"/>
<path d="M620.673 376.98C620.507 376.98 620.364 363.905 620.364 347.705C620.364 331.504 620.507 318.418 620.673 318.418C620.84 318.418 620.982 331.492 620.982 347.705C620.982 363.917 620.852 376.98 620.673 376.98Z" fill="#263238"/>
<path d="M578.062 382.745C578.145 382.887 567.983 389.139 555.372 396.699C542.761 404.258 532.456 410.273 532.373 410.13C532.289 409.987 542.44 403.735 555.051 396.176C567.662 388.616 577.967 382.602 578.062 382.745Z" fill="#263238"/>
<path d="M574.687 391.255C574.782 391.398 564.619 397.65 552.008 405.209C539.397 412.769 529.092 418.783 528.997 418.64C528.902 418.498 539.029 412.258 551.64 404.686C564.251 397.115 574.556 391.112 574.687 391.255Z" fill="#263238"/>
</svg>
