<svg width="512" height="512" viewBox="0 0 512 512" fill="none" xmlns="http://www.w3.org/2000/svg">
<g clip-path="url(#clip0)">
<path d="M398.283 270.936H423.272C429.492 288.752 446.454 301.573 466.364 301.573C491.528 301.573 512.001 281.1 512.001 255.936C512.001 230.772 491.528 210.299 466.364 210.299C446.454 210.299 429.492 223.12 423.272 240.936H398.269C395.325 212.928 384.263 187.307 367.49 166.464L427.908 106.046C436.055 110.594 445.428 113.197 455.403 113.197C486.612 113.197 512.002 87.807 512.002 56.598C512.002 25.389 486.61 0 455.401 0C424.192 0 398.802 25.39 398.802 56.599C398.802 66.96 401.613 76.671 406.494 85.033L346.355 145.172C325.405 128.06 299.534 116.759 271.221 113.751V88.728C289.037 82.508 301.858 65.546 301.858 45.636C301.858 20.472 281.386 0 256.222 0C231.058 0 210.586 20.472 210.586 45.636C210.586 65.546 223.407 82.508 241.222 88.728V113.699C212.693 116.64 186.628 128.002 165.551 145.247L105.444 85.14C110.363 76.754 113.198 67.004 113.198 56.599C113.197 25.39 87.807 0 56.599 0C25.391 0 0 25.39 0 56.599C0 87.808 25.39 113.198 56.599 113.198C66.529 113.198 75.865 110.619 83.986 106.108L144.436 166.558C127.705 187.385 116.672 212.971 113.732 240.937H88.728C82.508 223.121 65.546 210.3 45.637 210.3C20.473 210.299 0 230.772 0 255.936C0 281.1 20.473 301.573 45.637 301.573C65.547 301.573 82.509 288.752 88.728 270.936H113.717C116.633 298.92 127.654 324.526 144.378 345.372L83.904 405.846C75.802 401.363 66.495 398.803 56.598 398.803C25.39 398.803 0 424.193 0 455.401C0 486.609 25.39 512 56.599 512C87.808 512 113.198 486.61 113.198 455.401C113.198 444.963 110.346 435.183 105.398 426.779L165.481 366.696C186.57 383.973 212.662 395.356 241.223 398.301V423.272C223.408 429.492 210.587 446.454 210.587 466.364C210.587 491.528 231.059 512 256.223 512C281.387 512 301.86 491.528 301.86 466.364C301.86 446.454 289.039 429.492 271.223 423.272V398.25C299.568 395.238 325.465 383.916 346.428 366.771L406.543 426.886C401.633 435.266 398.804 445.007 398.804 455.401C398.804 486.609 424.194 512 455.403 512C486.612 512 512 486.61 512 455.401C512 424.192 486.61 398.802 455.401 398.802C445.46 398.802 436.115 401.387 427.987 405.906L367.545 345.464C384.312 324.602 395.362 298.962 398.283 270.936V270.936ZM228.693 281.002C227.832 273.092 227.382 264.989 227.382 256.744C227.382 247.982 227.882 239.377 228.853 230.997H283.153C284.124 239.377 284.624 247.982 284.624 256.744C284.624 264.989 284.174 273.091 283.313 281.002H228.693ZM277.8 311.002C272.934 329.38 265.565 346.027 256.002 360.008C246.439 346.027 239.07 329.38 234.205 311.002H277.8ZM142.939 256C142.939 247.411 143.907 239.043 145.73 230.998H198.69C197.826 239.43 197.381 248.029 197.381 256.745C197.381 264.949 197.779 273.048 198.545 281.003H145.73C143.907 272.957 142.939 264.589 142.939 256ZM234.612 200.998C239.478 183.211 246.699 167.082 256.002 153.481C265.305 167.082 272.527 183.211 277.393 200.998H234.612ZM313.314 230.998H366.269C368.092 239.044 369.06 247.411 369.06 256C369.06 264.589 368.092 272.957 366.269 281.002H313.458C314.224 273.047 314.622 264.949 314.622 256.744C314.623 248.028 314.178 239.43 313.314 230.998V230.998ZM466.363 240.299C474.985 240.299 482 247.314 482 255.936C482 264.558 474.985 271.573 466.363 271.573C457.741 271.573 450.726 264.558 450.726 255.936C450.726 247.314 457.741 240.299 466.363 240.299ZM455.401 30C470.068 30 482 41.932 482 56.599C482 71.266 470.068 83.198 455.401 83.198C440.734 83.198 428.802 71.266 428.802 56.599C428.802 41.932 440.734 30 455.401 30V30ZM354.748 200.998H308.295C303.706 181.486 296.704 163.37 287.546 147.424C316.323 155.798 340.393 175.327 354.748 200.998V200.998ZM256.222 30C264.844 30 271.859 37.014 271.859 45.636C271.859 54.258 264.844 61.273 256.222 61.273C247.6 61.273 240.586 54.258 240.586 45.636C240.586 37.014 247.6 30 256.222 30V30ZM224.459 147.422C215.301 163.369 208.298 181.485 203.71 200.998H157.252C171.608 175.325 195.68 155.796 224.459 147.422ZM30 56.599C30 41.932 41.932 30 56.599 30C71.266 30 83.198 41.932 83.198 56.599C83.198 71.266 71.265 83.197 56.599 83.197C41.933 83.197 30 71.265 30 56.599V56.599ZM45.637 271.573C37.015 271.573 30 264.558 30 255.936C30 247.314 37.015 240.299 45.637 240.299C54.259 240.299 61.273 247.314 61.273 255.936C61.273 264.558 54.259 271.573 45.637 271.573ZM56.599 482C41.932 482 30 470.068 30 455.401C30 440.734 41.932 428.802 56.599 428.802C71.266 428.802 83.198 440.734 83.198 455.401C83.198 470.068 71.265 482 56.599 482ZM157.252 311.002H203.353C207.766 330.358 214.558 348.358 223.452 364.277C195.119 355.745 171.44 336.374 157.252 311.002V311.002ZM256.222 482C247.6 482 240.586 474.986 240.586 466.364C240.586 457.742 247.6 450.727 256.222 450.727C264.844 450.727 271.859 457.742 271.859 466.364C271.859 474.986 264.844 482 256.222 482ZM288.553 364.276C297.446 348.357 304.238 330.357 308.651 311.002H354.748C340.561 336.373 316.884 355.743 288.553 364.276ZM482 455.401C482 470.068 470.068 482 455.401 482C440.734 482 428.802 470.068 428.802 455.401C428.802 440.734 440.734 428.802 455.401 428.802C470.068 428.802 482 440.735 482 455.401Z" fill="black"/>
<circle cx="255.5" cy="256.5" r="115.5" fill="white"/>
<line x1="234.071" y1="50.0711" x2="61.0711" y2="223.071" stroke="black" stroke-width="20"/>
<line x1="53.9912" y1="289.85" x2="233.991" y2="465.85" stroke="black" stroke-width="20"/>
<path d="M250.959 213.906V260.732C250.959 268.512 248.518 274.665 243.635 279.189C238.785 283.714 232.144 285.977 223.713 285.977C215.412 285.977 208.82 283.779 203.938 279.385C199.055 274.99 196.564 268.952 196.467 261.27V213.906H211.115V260.83C211.115 265.485 212.222 268.887 214.436 271.035C216.682 273.151 219.774 274.209 223.713 274.209C231.949 274.209 236.132 269.88 236.262 261.221V213.906H250.959ZM288.41 238.418L301.74 213.906H318.586L297.883 249.16L319.123 285H302.082L288.41 260.098L274.738 285H257.697L278.938 249.16L258.234 213.906H275.08L288.41 238.418Z" fill="black"/>
</g>
<line x1="285.991" y1="50.8499" x2="465.991" y2="226.85" stroke="black" stroke-width="20"/>
<line x1="469" y1="108" x2="469" y2="218" stroke="black" stroke-width="20"/>
<line x1="469" y1="290" x2="469" y2="431" stroke="black" stroke-width="20"/>
<line x1="55.9983" y1="108.182" x2="53.9983" y2="218.182" stroke="black" stroke-width="20"/>
<line x1="54" y1="290" x2="54" y2="407" stroke="black" stroke-width="20"/>
<line x1="95" y1="37" x2="215" y2="37" stroke="black" stroke-width="20"/>
<line x1="291" y1="37" x2="411" y2="37" stroke="black" stroke-width="20"/>
<line x1="291" y1="462" x2="411" y2="462" stroke="black" stroke-width="20"/>
<line x1="95" y1="462" x2="215" y2="462" stroke="black" stroke-width="20"/>
<line x1="283.846" y1="455.013" x2="451.846" y2="283.013" stroke="black" stroke-width="20"/>
<defs>
<clipPath id="clip0">
<rect width="512" height="512" fill="white"/>
</clipPath>
</defs>
</svg>
